<svg width="1201" height="1053" viewBox="0 0 1201 1053" fill="none" xmlns="http://www.w3.org/2000/svg">
<path fill-rule="evenodd" clip-rule="evenodd" d="M474.917 0.989487C405.958 4.84769 327.054 12.1378 293.748 17.7298C228.404 28.6979 174.735 51.1871 143.129 80.8416C114.886 107.342 97.4495 149.503 90.2456 208.713C83.9323 260.582 84.9408 374.874 92.6606 482.847L95.6342 524.44L86.1617 531.742C74.6561 540.613 55.1023 561.315 43.0952 577.338C23.7859 603.104 6.19376 644.947 1.80108 675.557C-2.68799 706.84 1.44767 751.426 11.611 781.327C14.3794 789.469 14.3401 789.81 9.60476 799.164C2.77387 812.652 1.67079 836.171 7.04161 853.841C19.2861 894.128 57.6887 917.928 88.4821 904.316C107.001 896.129 115.151 883.565 115.215 863.103C115.249 851.786 114.403 847.926 109.714 838.037L104.17 826.346L114.374 827.085C123.69 827.757 125.094 827.359 130.54 822.497C140.805 813.332 137.901 800.753 123.036 789.994C109.367 780.1 81.3692 772.335 58.8453 772.196L48.8408 772.133L45.0443 759.201C38.333 736.341 36.8819 727.048 36.8944 707.027C36.9176 670.937 47.8805 636.631 69.6137 604.649C77.246 593.418 98.2402 569.92 99.5093 571.186C99.9002 571.577 101.839 587.853 103.818 607.355C109.642 664.753 115.72 688.53 130.353 711.155C149.31 740.465 181.03 760.05 228.152 771.539C239.197 774.233 248.232 777.337 248.232 778.437C248.232 781.682 237.633 855.478 234.726 872.479C231.845 889.324 232.521 892.758 239.718 897.795C241.892 899.317 245.608 900.562 247.973 900.562C254.155 900.562 337.664 844.082 390.956 803.859C401.384 795.989 402.608 795.481 403.747 798.556C405.971 804.565 409.073 920.111 407.793 949.257C406.699 974.155 406.222 977.292 403.699 976.181C402.128 975.491 392.811 974.567 382.994 974.13C368.086 973.466 363.401 973.949 354.565 977.058C333.956 984.311 322.653 996.273 320.316 1013.3C318.015 1030.08 328.42 1043.97 347.668 1049.83C362.653 1054.4 396.773 1053.95 412.113 1048.99C436.389 1041.14 442.513 1032.74 444.712 1004.26C447.617 966.645 445.551 805.056 441.964 789.079C441.169 785.547 442.094 785.511 535.236 785.476C586.978 785.456 631.41 784.866 633.974 784.165C638.506 782.927 638.674 783.176 640.034 793.121C640.804 798.747 641.614 851.982 641.835 911.421C642.289 1032.89 641.368 1024.92 655.933 1033.45C672.286 1043.03 710.983 1047.02 735.308 1041.63C748.884 1038.62 761.571 1030.51 766.262 1021.85C771.26 1012.63 769.985 996.135 763.522 986.375C757.312 977 746.321 969.039 734.899 965.65C723.41 962.241 701.08 962.239 689.837 965.648C685.018 967.109 680.754 968.313 680.361 968.324C679.968 968.334 680.172 958.913 680.811 947.384C681.991 926.172 679.379 807.412 677.368 790.713L676.275 781.644L704.557 779.498C813.81 771.206 906.544 756.547 966.291 738.128C994.646 729.388 996.445 724.511 980.993 698.273C950.183 645.96 937.821 609.566 933.721 559.123C930.933 524.798 929.468 528.475 946.499 527.055C1003.39 522.314 1061.54 496.368 1099.07 458.981C1127.35 430.805 1148.73 390.662 1157.46 349.39C1158.06 346.536 1160.51 344.004 1164.27 342.357C1167.5 340.943 1173.76 336.073 1178.17 331.539C1210.99 297.846 1207.88 235.949 1172.34 215.664C1153.12 204.696 1132.8 207.274 1117.44 222.628C1108.27 231.786 1101.42 248.139 1101.42 260.861V267.962L1097.41 264.291C1088.2 255.88 1076.57 252.746 1069.2 256.69C1064.69 259.096 1060.37 267.628 1060.37 274.101C1060.37 288.535 1083.38 318.375 1106.88 334.421C1119.3 342.905 1119.5 343.163 1118.35 349.344C1115.13 366.75 1101.21 398.043 1089.71 413.744C1081.55 424.871 1058.11 446.939 1045.82 455.06C1016.96 474.125 984.316 485.134 938.83 491.141L930.633 492.222L929.507 432.847C926.792 289.495 914.078 177.76 893.482 116.25C878.208 70.6368 856.638 43.8168 822.083 27.4743C802.944 18.4219 790.726 14.9454 765.76 11.451C710.762 3.7507 537.164 -2.49413 474.917 0.989487ZM603.431 30.9846C656.024 31.9478 726.854 35.7668 753.364 39.0685C787.765 43.353 812.977 52.0808 828.638 65.1287C858.353 89.885 875.729 140.232 887.042 234.34C895.826 307.416 898.899 358.671 901.539 476.035C903.411 559.349 905.65 586.118 913.32 616.949C920.074 644.098 932.55 673.493 949.55 702.304C953.364 708.77 954.362 711.84 952.818 712.373C946.798 714.451 912.318 722.417 891.695 726.497C845.33 735.665 771.547 744.871 705.171 749.773C685.046 751.257 662.858 752.942 655.863 753.517C611.179 757.18 446.76 757.177 416.527 753.511C409.373 752.643 408.288 753.185 394.215 764.663C367.891 786.132 295.461 838.327 288.013 841.196C286.76 841.679 288.844 833.133 292.962 820.906C304.452 786.792 316.355 745.153 315.358 742.557C314.851 741.236 308.802 737.372 301.917 733.972C284.434 725.337 275.406 718.78 263.906 706.367C238.808 679.278 230.667 652.629 225.939 582.095C224.429 559.57 221.239 515.054 218.851 483.17C213.084 406.14 211.716 343.736 214.205 270.906C218.465 146.144 227.242 103.98 255.165 74.149C268.643 59.749 294.087 47.213 318.96 42.7144C354.869 36.2234 483.238 28.334 532.927 29.5666C543.725 29.8341 575.452 30.4727 603.431 30.9846ZM246.146 66.4344C239.931 72.681 233.107 78.6921 230.983 79.7927C228.859 80.8933 206.869 95.4467 182.115 112.135C157.362 128.824 136.794 142.478 136.409 142.478C136.025 142.478 137.257 139.469 139.147 135.789C141.867 130.497 149.682 124.259 176.578 105.912C198.433 91.0034 210.603 81.6085 210.66 79.6019C210.71 77.8859 209.68 76.4803 208.373 76.4803C205.935 76.4803 166.942 102.36 159.043 109.221L154.638 113.047L159.222 106.804C166.267 97.2072 183.102 84.4197 199.024 76.5731C209.928 71.1987 252.8 55.2825 256.855 55.1024C257.18 55.0881 252.361 60.186 246.146 66.4344ZM704.054 63.1898C700.791 65.7155 700.793 65.8422 704.173 68.4536C707.39 70.9365 712.568 71.3985 743.076 71.9211C747.122 71.9907 749.027 71.122 749.432 69.019C750.323 64.392 745.107 62.7885 725.473 61.6504C711.188 60.8228 706.696 61.1456 704.054 63.1898ZM779.031 75.5028C777.537 79.3914 779.113 80.9111 790.308 86.3854C803.399 92.7854 814.887 103.393 821.596 115.275C827.349 125.458 833.685 128.214 833.685 120.531C833.685 110.43 816.684 91.1015 797.682 79.6019C785.907 72.4759 780.638 71.3182 779.031 75.5028ZM220.545 110.987L214.642 128.546L180.084 153.796C161.076 167.682 140.473 182.942 134.297 187.706C128.122 192.469 122.665 195.963 122.171 195.469C121.678 194.975 121.83 191.6 122.512 187.97C123.866 180.752 130.626 175.188 178.62 141.781C190.892 133.24 202.372 125.065 204.132 123.615C207.608 120.751 206.763 117.506 202.542 117.506C198.936 117.506 157.002 146.29 129.171 167.87C125.721 170.543 129.801 158.332 133.535 154.804C137.41 151.144 225.394 92.2931 226.006 92.9513C226.251 93.2117 223.793 101.328 220.545 110.987ZM211.392 148.275C210.738 152.444 209.623 156.092 208.909 156.379C207.324 157.017 150.585 198.073 132.578 211.608C125.417 216.993 119.142 220.98 118.631 220.47C118.121 219.96 118.242 216.852 118.899 213.563C119.964 208.237 124.862 204.088 163.761 175.554C187.775 157.938 207.818 142.887 208.3 142.109C210.774 138.11 212.455 141.465 211.392 148.275ZM838.16 151.377C836.525 154.019 840.923 175.085 843.734 178.088C845.882 180.382 846.494 180.382 848.752 178.088C850.938 175.868 850.981 173.856 849.032 164.612C847.772 158.635 846.166 152.817 845.462 151.68C843.899 149.151 839.645 148.975 838.16 151.377ZM208.004 170.572C207.657 172.288 206.917 176.578 206.356 180.101C205.417 186.005 203.031 188.158 176.002 207.461C159.866 218.986 145.814 229.44 144.771 230.694C143.4 232.346 143.624 233.593 145.578 235.214C147.831 237.083 150.419 235.888 161.217 227.992C190.285 206.739 203.788 197.36 204.4 197.995C205.292 198.922 202.728 242.101 201.733 242.872C189.578 252.308 147.872 286.68 133.551 299.07L114.363 315.667V300.714V285.761L152.427 257.375C173.362 241.762 192.839 227.264 195.711 225.157C199.963 222.036 200.512 220.889 198.669 218.971C195.392 215.561 189.878 218.941 150.203 248.688L116.148 274.221V267.268C116.148 261.108 117.051 259.651 124.089 254.464C133.116 247.809 134.745 245.208 131.545 242.554C129.928 241.213 127.475 241.939 122.728 245.164L116.148 249.63L116.175 242.877C116.191 239.163 116.793 235.237 117.514 234.155C118.603 232.521 146.545 211.512 197.362 174.125C207.515 166.655 208.882 166.2 208.004 170.572ZM197.96 267.032C190.253 272.426 149.228 305.339 132.821 319.29C120.288 329.948 116.227 332.547 115.413 330.428C114.829 328.908 114.822 326.905 115.395 325.977C118.064 321.664 142.451 300.837 193.792 259.029L200.932 253.215L201.505 258.683C201.935 262.771 201.041 264.876 197.96 267.032ZM196.186 290.822C111.848 358.036 116.139 354.923 116.268 348.821C116.398 342.637 120.15 339.198 175.773 294.3L200.932 273.991L201.541 280.03C202.051 285.1 201.193 286.83 196.186 290.822ZM201.824 309.727V321.793L179.067 338.902C166.551 348.313 147.274 362.989 136.229 371.516L116.148 387.02L116.291 375.786L116.434 364.552L158.517 331.107C181.662 312.713 200.875 297.662 201.212 297.662C201.55 297.662 201.824 303.092 201.824 309.727ZM716.498 326.935C703.874 332.581 695.683 354.198 699.42 372.008C706.162 404.126 734.605 411.616 747.197 384.587C761.045 354.863 740.466 316.218 716.498 326.935ZM201.762 350.728L201.699 368.12L183.531 381.497C173.541 388.855 155.006 403.148 142.344 413.258C129.682 423.369 119.081 431.395 118.786 431.096C118.49 430.796 118.017 423.185 117.735 414.182L117.221 397.817L129.899 388.026C136.873 382.643 148.479 373.464 155.691 367.629C169.455 356.495 200.205 333.337 201.228 333.337C201.557 333.337 201.796 341.162 201.762 350.728ZM428.613 343.716C412.777 360.351 414.513 394.101 431.961 408.772C455.172 428.29 481.487 385.47 465.721 353.832C460.268 342.887 451.972 336.904 442.247 336.904C436.282 336.904 434.021 338.035 428.613 343.716ZM201.767 392.646L201.708 405.578L184.966 417.784C163.977 433.085 159.306 437.826 162.287 440.805C164.989 443.505 167.793 441.91 187.354 426.533L201.539 415.381L202.506 426.533C203.038 432.667 203.838 442.214 204.284 447.747L205.096 457.809L182.565 475.298C162.861 490.594 159.129 492.806 152.818 492.936C148.295 493.03 141.653 495.228 135.031 498.824C129.219 501.979 124.289 504.364 124.077 504.121C123.863 503.881 123.177 498.064 122.553 491.197L121.416 478.71L129.046 472.978C133.242 469.824 140.289 464.068 144.707 460.186C152.345 453.474 152.587 452.973 149.653 449.966C146.231 446.463 146.624 446.229 129.908 461.713C121.674 469.342 119.786 467.655 119.745 452.625L119.718 442.592L148.723 419.53C188.627 387.803 198.927 379.896 200.486 379.798C201.223 379.751 201.798 385.532 201.767 392.646ZM532.264 431.674C496.245 443.07 486.799 488.004 514.587 515.771C530.071 531.245 553.628 539.009 584.689 538.874C634.408 538.658 668.87 517.441 674.073 483.841C677.228 463.46 662.273 442.007 640.147 435.177C614.688 427.32 552.416 425.297 532.264 431.674ZM207.152 479.413C207.174 484.201 205.778 486.689 200.486 491.304C195.174 495.934 194.242 497.602 195.975 499.382C197.662 501.114 199.183 501.157 202.669 499.569C205.15 498.44 207.215 497.7 207.259 497.923C207.304 498.148 207.757 502.398 208.27 507.37L209.2 516.41L183.743 536.801C169.74 548.017 152.218 562.241 144.803 568.409L131.32 579.621L130.158 570.192C129.519 565.005 128.923 557.551 128.834 553.627C128.655 545.779 127.184 547.004 155.027 531.803C168.623 524.379 172.291 519.447 170.993 510.334C170.474 506.676 169.508 502.35 168.85 500.722C167.938 498.467 172.047 494.363 186.076 483.516C205.419 468.565 207.101 468.236 207.152 479.413ZM564.696 488.541C577.808 492.588 593.935 502.505 605.3 513.509L613.248 521.206L606.108 522.835C602.182 523.73 589.33 524.122 577.55 523.707C552.323 522.815 540.423 519.074 527.981 508.13C520.679 501.706 512.746 489.365 514.678 487.433C515.117 486.994 519.001 485.899 523.31 484.998C533.791 482.806 550.853 484.267 564.696 488.541ZM211.226 546.786L212.18 564.918L197.632 576.186C189.63 582.384 172.532 596.42 159.638 607.378L136.193 627.3L135.099 620.788C134.099 614.839 134.587 613.808 140.693 608.922C150.014 601.467 155.417 596.003 155.417 594.032C155.417 589.829 149.64 590.925 142.649 596.452C134.51 602.888 132.279 602.31 132.254 593.761C132.245 590.434 135.056 587.034 143.313 580.383C168.155 560.371 209.687 527.897 209.969 528.262C210.135 528.478 210.701 536.814 211.226 546.786ZM214.467 598.375L214.842 613.997L179.329 642.264L143.815 670.531L141.557 662.916C140.314 658.726 138.835 651.286 138.265 646.381L137.232 637.462L166.404 613.296C214.915 573.114 211.456 575.635 212.862 579.436C213.539 581.26 214.26 589.783 214.467 598.375ZM188.304 613.947C180.375 621.12 178.847 625.929 184.527 625.83C188.321 625.766 204.291 610.578 202.911 608.346C200.636 604.667 197.035 606.047 188.304 613.947ZM218.529 636.865C219.163 642.911 219.477 647.974 219.231 648.111C216.536 649.618 189.923 671.123 175.668 683.315C155.952 700.174 156.837 700.042 150.313 687.103L146.565 679.665L179.995 652.888C198.383 638.161 214.315 626.057 215.404 625.989C216.534 625.92 217.873 630.575 218.529 636.865ZM225.981 667.077L229.007 676.18L217.648 686.532C209.021 694.391 206.778 697.394 208.327 698.999C210.829 701.596 214.31 699.923 225.035 690.969L232.703 684.567L236.066 689.554L239.429 694.541L231.022 701.676C226.399 705.6 217.027 713.793 210.194 719.881L197.773 730.951L192.434 728.191L187.095 725.432L196.313 716.105C202.715 709.626 205.182 705.873 204.391 703.815C202.931 700.012 199.968 701.555 187.886 712.411L178.694 720.671L170.588 712.956L162.483 705.244L179.777 690.974C207.279 668.281 220.377 657.975 221.714 657.975C222.397 657.975 224.318 662.07 225.981 667.077ZM246.81 727.148C230.23 742.488 231.026 742.165 218.744 738.521C212.873 736.78 208.072 734.821 208.072 734.17C208.072 733.519 216.091 726.153 225.89 717.799L243.711 702.613L250.351 710.17L256.989 717.73L246.81 727.148ZM851.893 706.601C847.388 708.042 846.132 709.36 846.539 712.216C846.963 715.188 848.134 715.832 852.295 715.384C859.488 714.608 867.599 710.156 867.599 706.981C867.599 703.906 860.825 703.742 851.893 706.601ZM287.761 741.81C288.605 741.81 286.06 744.732 282.103 748.303C273.996 755.623 270.951 755.052 275.656 747.092C278.467 742.336 278.501 741.669 275.989 740.706C274.374 740.087 270.608 741.594 267.111 744.259C261.319 748.676 260.577 748.795 251.004 746.874C245.483 745.766 241.196 744.288 241.476 743.59C241.757 742.891 246.654 738.257 252.361 733.291L262.736 724.262L274.481 733.036C280.941 737.863 286.917 741.81 287.761 741.81ZM301.78 751.285C301.78 753.882 299.633 756.97 295.979 759.629C292.787 761.95 287.568 765.808 284.377 768.202L278.576 772.556L278.608 767.44C278.633 763.491 280.711 760.593 287.716 754.742C297.965 746.18 301.78 745.242 301.78 751.285ZM296.793 772.085C295.39 775.876 278.826 787.249 277.15 785.574C275.929 784.352 277.11 783.148 287.5 775.027C296.782 767.774 298.601 767.198 296.793 772.085ZM289.285 792.47C289.285 793.845 286.274 796.842 282.592 799.13C273.364 804.868 273.392 804.861 274.39 801.048C274.879 799.178 278.23 795.941 281.837 793.852C289.696 789.298 289.285 789.373 289.285 792.47ZM281.571 815.863C280.266 819.63 277.451 823.872 275.317 825.288C271.59 827.762 271.438 827.627 271.459 821.849C271.479 817.053 272.652 815.066 277.26 812.041C280.438 809.954 283.242 808.418 283.492 808.628C283.741 808.839 282.878 812.094 281.571 815.863ZM274.378 838.577C273.869 839.804 272.47 843.818 271.27 847.496C270.069 851.176 268.518 854.185 267.824 854.185C266.38 854.185 268.402 841.595 270.353 838.44C272.088 835.636 275.55 835.754 274.378 838.577Z" fill="black"/>
</svg>
