<svg width="1187" height="1154" viewBox="0 0 1187 1154" fill="none" xmlns="http://www.w3.org/2000/svg">
<path fill-rule="evenodd" clip-rule="evenodd" d="M94.9126 7.2844C67.839 23.7652 57.0609 32.9202 58.9476 37.8367C59.9391 40.4262 79.35 66.1851 114.62 111.721C131.416 133.406 136.511 136.989 141.285 130.472C142.644 128.616 143.291 124.895 142.783 121.852C140.24 106.613 118.295 10.3932 116.226 5.407C113.065 -2.21324 110.081 -1.94911 94.9126 7.2844ZM996.58 9.15287C994.201 12.0225 978.399 73.7286 972.29 104.006C967.575 127.375 966.444 138.697 968.493 142.014C970.624 145.466 976.34 144.488 979.442 140.144C990.973 124.001 1026.04 77.9028 1038.4 62.6337C1046.66 52.4347 1053.42 43.0388 1053.42 41.7557C1053.42 40.4708 1052.02 38.1812 1050.3 36.6642C1045.38 32.3152 1002.94 6.74545 1000.64 6.74545C999.506 6.74545 997.678 7.8287 996.58 9.15287ZM108.287 20.6207C108.287 23.3993 122.354 85.6836 126.157 99.7516C127.119 103.301 127.903 106.745 127.903 107.406C127.903 109.03 114.896 92.938 99.7399 72.5615C92.8904 63.3547 84.3966 52.2081 80.864 47.7912C77.3295 43.3743 74.4317 38.7951 74.4228 37.6154C74.3925 33.9981 103.964 14.9903 106.848 16.7731C107.64 17.2639 108.287 18.9949 108.287 20.6207ZM1028.01 36.4965C1033.16 39.7391 1037.37 42.9621 1037.37 43.6563C1037.37 44.3505 1035.46 46.9703 1033.12 49.4777C1030.79 51.985 1018.75 67.4932 1006.37 83.9383C993.999 100.383 983.881 112.429 983.89 110.707C983.908 107.322 998.07 48.4694 1002.72 32.4687L1005.56 22.6926L1012.1 26.6455C1015.7 28.8209 1022.86 33.2521 1028.01 36.4965ZM516.657 86.4724C397.149 91.7959 316.821 102.048 267.018 118.34C198.631 140.708 163.073 170.531 143.131 222.243C130.161 255.874 125.182 287.043 122.56 351.011C119.672 421.552 123.575 516.568 134.341 637.655L135.457 650.2L127.047 659.962C107.747 682.362 87.7546 716.81 77.3456 745.598C60.8521 791.21 54.7711 849.399 61.8258 894.084C63.0099 901.584 62.6889 902.948 58.8958 906.513C52.1533 912.852 44.3354 930.898 42.1919 945.071C36.0379 985.782 62.7388 1028.2 97.0846 1032.27C124.519 1035.52 147.787 1014.37 147.712 986.244C147.696 980 146.451 970.875 144.946 965.967C143.439 961.06 142.2 956.823 142.189 956.552C142.178 956.282 144.538 957.285 147.43 958.782C153.604 961.977 165.147 962.336 171.313 959.525C179.231 955.913 181.91 944.347 177.018 934.88C169.551 920.431 135.2 899.605 111.488 895.153L99.5295 892.908L98.1261 883.037C95.8577 867.104 96.942 824.599 100.073 806.622C105.448 775.765 121.644 732.395 135.457 711.869L141.538 702.832L143.721 721.627C148.518 762.921 158.788 789.476 178.138 810.607C198.128 832.44 223.993 846.363 263.624 856.627C282.952 861.631 284.694 862.423 283.934 865.849C283.478 867.912 281.864 878.834 280.348 890.122C278.834 901.409 275.612 923.722 273.188 939.705C267.785 975.347 267.785 974.947 273.16 980.324C281.611 988.783 285.616 987.195 328.537 958.352C370.838 929.927 410.45 901.738 434.626 882.857C452.189 869.14 457.58 865.98 459.738 868.139C463.139 871.542 465.396 939.798 464.243 1004.34C463.602 1040.16 462.625 1071.56 462.072 1074.11L461.065 1078.74L450.075 1076.15C442.706 1074.41 434.237 1073.89 424.381 1074.55C400.573 1076.16 384.876 1084.9 376.853 1101C371.265 1112.23 370.926 1121.91 375.773 1131.92C382.62 1146.08 396.036 1152.26 423.156 1153.74C461.953 1155.86 489.77 1144.84 495.049 1125.27C500.356 1105.57 504.084 966.549 500.78 911.537C499.63 892.397 498.285 875.397 497.79 873.757C496.962 871.014 500.16 870.859 538.147 871.805C569.283 872.581 691.911 869.824 704.792 868.059C708.296 867.579 709.528 901.49 709.869 1007.91C710.133 1090.1 710.744 1116.81 712.431 1119.82C719.32 1132.07 739.967 1139.89 768.99 1141.22C812.252 1143.21 836.695 1129.81 836.695 1104.09C836.695 1076.17 804.224 1055.82 768.273 1061.21C760.821 1062.33 753.293 1063.44 751.546 1063.68C748.55 1064.1 748.377 1060.58 748.486 1001.66C748.55 967.306 747.649 922.926 746.483 903.039C745.319 883.151 744.851 866.39 745.449 865.794C746.044 865.198 753.992 863.986 763.11 863.103C872.995 852.447 937.616 841.777 995.465 824.738C1029.38 814.749 1031.59 810.163 1015.6 782.928C999.322 755.195 987.39 729.901 980.081 707.62C974.173 689.613 971.855 679.539 973.62 679.539C973.866 679.539 979.685 680.729 986.549 682.186C1029.4 691.267 1074.9 676.441 1108.39 642.484C1135.4 615.106 1150.63 580.683 1155.24 536.639L1157.25 517.405L1165.58 508.76C1175.4 498.568 1181.2 487.017 1184.62 470.864C1187.85 455.608 1187.8 445.382 1184.42 432.301C1180.7 417.954 1175.86 408.341 1167.66 399.007C1147.59 376.195 1116.31 374.303 1098.31 394.815C1087.92 406.658 1086.48 411.07 1086.44 431.028C1086.43 441.085 1085.98 449.317 1085.45 449.321C1084.92 449.322 1081.34 447.72 1077.5 445.757C1061.56 437.624 1048.07 444.145 1048.07 459.987C1048.07 477.822 1077.87 505.955 1108.78 517.294L1118.67 520.92L1117.26 535.499C1112.83 581.34 1088.08 620.548 1052.87 637.498C1027.44 649.733 1001.4 650.837 980.011 640.585L968.126 634.885L967.157 621.966C966.624 614.862 965.319 572.508 964.256 527.848C959.727 337.564 944.431 228.623 913.789 168.416C892.567 126.717 854.603 103.273 796.63 96.0628C744.081 89.5294 576.733 83.7955 516.657 86.4724ZM29.3684 103.56C27.7635 104.788 21.9928 112.94 16.5449 121.679C6.6959 137.476 4.44719 145.512 8.86971 149.099C13.1157 152.542 80.8818 179.843 85.1938 179.848C89.067 179.853 92.2484 176.234 92.1753 171.91C92.1414 169.899 83.2661 157.41 72.4541 144.16C35.0589 98.3382 35.5706 98.82 29.3684 103.56ZM1068.23 123.82C1060.58 130.302 1044.88 144.422 1033.36 155.197C1015.98 171.444 1012.41 175.668 1012.41 179.935C1012.41 189.372 1016.46 189.587 1047.57 181.793C1063.05 177.915 1082.46 173.477 1090.71 171.928C1106.05 169.046 1110.49 166.981 1110.49 162.716C1110.49 159.304 1094.53 122.869 1090.45 116.944C1088.58 114.246 1085.96 112.037 1084.61 112.037C1083.26 112.037 1075.89 117.339 1068.23 123.82ZM735.999 119.964C779.397 122.807 796.7 124.809 815.899 129.212C874.372 142.623 897.654 175.768 914.141 269.081C926.558 339.352 932.858 422.532 935.701 553.725C936.658 597.894 938.279 642.063 939.303 651.878C944.009 697.023 952.667 725.821 974.296 768.278L989.049 797.232L981.704 799.213C944.094 809.346 897.061 817.731 833.187 825.689C769.849 833.58 720.588 837.533 650.402 840.357C602.266 842.293 498.337 841.575 460.46 839.047L444.389 837.972L430.145 849.426C391.285 880.672 322.28 929.89 322.28 926.36C322.28 925.644 326.248 912.581 331.098 897.328C349.596 839.155 352.408 828.692 350.172 826.351C349.015 825.139 341.557 820.999 333.598 817.148C323.733 812.372 315.116 806.356 306.519 798.24C275.752 769.194 266.207 741.29 261.638 667.047C260.643 650.852 259.018 628.767 258.03 617.971C247.457 502.466 246.304 349.62 255.357 263.61C264.051 181.028 284.738 148.5 339.221 131.751C352.783 127.582 397.243 122.387 446.217 119.252C462.891 118.183 479.743 117.005 483.666 116.632C502.408 114.855 697.25 117.426 735.999 119.964ZM49.8279 136.575C69.4938 161.691 69.1586 160.944 58.9333 156.93C28.6872 145.059 20.9068 141.636 20.9068 140.194C20.9068 137.485 32.5516 117.391 34.1209 117.391C34.4989 117.391 41.5678 126.024 49.8279 136.575ZM1089.44 143.307L1095.6 157.623L1065.59 164.877C1049.09 168.867 1035.59 171.573 1035.59 170.889C1035.59 168.717 1081.81 127.252 1082.86 128.485C1083.1 128.764 1086.06 135.433 1089.44 143.307ZM282.138 151.137C272.758 160.399 172.485 229.612 172.485 226.824C172.485 222.96 181.382 211.901 188.262 207.215C192.825 204.108 207.995 193.796 221.971 184.302C235.946 174.808 247.382 166.285 247.382 165.361C247.382 161.238 241.296 161.923 234.352 166.824C230.24 169.728 218.85 177.589 209.042 184.293L191.209 196.484L200.126 187.109C210.672 176.022 225.898 165.241 239.937 158.918C250.942 153.962 288.198 140.612 291.055 140.597C292.027 140.594 288.014 145.337 282.138 151.137ZM738.38 148.748C736.254 154.287 741.729 156.197 763.194 157.403L784.147 158.583V154.082C784.147 148.675 782.878 148.33 757.792 146.938C742.096 146.066 739.307 146.326 738.38 148.748ZM813.869 159.627C810.773 162.723 813.587 165.982 823.825 171.153C840.008 179.327 845.599 184.168 854.731 197.915C862.485 209.587 866.358 212.444 868.883 208.357C870.955 205 862.196 190.224 852.087 180.021C838.842 166.654 817.973 155.519 813.869 159.627ZM255.933 196.534L250.391 213.982L236.21 224.133C228.412 229.715 207.735 244.922 190.262 257.928C172.788 270.934 158.115 281.574 157.653 281.574C155.371 281.574 160.977 265.987 164.255 263.217C169.036 259.177 224.357 219.527 234.454 212.902C242.603 207.556 243.29 206.317 239.738 203.365C237.375 201.404 210.635 218.768 179.049 242.771C171.379 248.6 164.881 253.09 164.605 252.749C163.096 250.877 167.782 240.23 171.185 237.801C181.79 230.233 260.709 178.317 261.067 178.674C261.292 178.9 258.983 186.936 255.933 196.534ZM93.1793 214.205C89.7732 219.045 82.8523 240.476 77.5328 262.657C74.2177 276.488 73.631 284.192 73.5758 314.589C73.524 344.706 73.9948 351.348 76.6002 357.11C78.7686 361.907 80.6268 363.754 82.8416 363.317C86.4028 362.614 86.4082 362.425 84.2255 325.296C82.2977 292.517 86.2548 268.177 102.433 213.313C103.82 208.609 96.6317 209.301 93.1793 214.205ZM964.258 213.479C964.258 215.288 965.847 221.392 967.789 227.042C973.657 244.108 976.741 264.759 976.741 286.979C976.741 310.397 977.415 313.696 982.198 313.696C994.449 313.696 989.167 245.257 974.724 216.882C971.036 209.635 964.258 207.431 964.258 213.479ZM246.542 234.608C245.467 240.755 243.753 242.512 228.979 252.613C219.975 258.77 201.775 271.855 188.534 281.691C175.294 291.528 162.253 301.202 159.556 303.189L154.652 306.801V300.514C154.652 294.423 155.731 293.422 188.98 268.639C239.688 230.843 246.15 226.208 246.981 227.04C247.397 227.456 247.199 230.861 246.542 234.608ZM872.806 237.485C871.571 240.706 875.948 261.727 878.356 264.136C879.372 265.154 881.532 265.477 883.155 264.854C885.555 263.931 885.871 262.305 884.845 256.14C882.796 243.813 879.749 236.152 876.656 235.558C875.064 235.251 873.331 236.118 872.806 237.485ZM1003.71 244.731C1002.27 246.46 1002.21 249.827 1003.49 256.573C1004.47 261.757 1005.27 270.643 1005.27 276.318C1005.27 288.912 1006.44 292.281 1010.78 292.281C1015.34 292.281 1016.66 285.903 1015.52 269.303C1014.59 255.726 1010.54 242.312 1007.36 242.312C1006.46 242.312 1004.81 243.401 1003.71 244.731ZM243.147 258.597C242.534 261.665 242.033 265.908 242.033 268.027C242.033 270.336 240.067 273.047 237.129 274.79C228.765 279.75 182.432 313.816 181.014 316.047C179.053 319.132 179.31 320.335 182.166 321.431C183.598 321.981 190.039 318.367 196.878 313.175C212.792 301.095 238.757 283.358 240.528 283.358C241.294 283.358 241.606 284.363 241.221 285.589C240.838 286.817 240.067 296.618 239.511 307.37C238.876 319.621 237.66 327.686 236.253 328.971C235.019 330.099 223.305 339.686 210.224 350.274C197.144 360.863 178.487 376.666 168.763 385.393L151.086 401.26V386.198V371.136L159.556 364.101C166.614 358.238 212.213 324.029 230.443 310.918C234.033 308.335 235.194 306.33 234.357 304.149C233.361 301.55 232.533 301.39 229.232 303.158C223.214 306.383 191.516 329.217 171.741 344.575C162.014 352.13 153.386 358.311 152.571 358.311C151.754 358.311 151.086 355.517 151.086 352.099C151.086 346.724 152.286 344.993 160.002 339.227C164.906 335.563 168.918 331.58 168.918 330.375C168.918 326.162 164.97 325.8 159.904 329.547C157.095 331.626 154.363 333.327 153.832 333.327C153.302 333.327 152.885 329.913 152.906 325.742C152.944 318.251 153.145 318.012 169.402 306.103C178.454 299.471 198.298 284.854 213.5 273.616C228.703 262.38 241.844 253.149 242.701 253.102C243.559 253.058 243.761 255.529 243.147 258.597ZM726.3 263.608C713.018 278.294 761.958 318.667 799.241 323.779C808.113 324.997 814.463 321.509 814.463 315.422C814.463 310.887 811.209 308.878 795.605 303.781C769.772 295.342 749.755 282.038 740.27 267.001C735.484 259.413 731.063 258.34 726.3 263.608ZM46.8909 267.747C40.1929 277.976 38.3811 326.594 44.4692 332.688C46.0331 334.253 48.0749 335.063 49.0076 334.487C49.9385 333.911 51.2082 321.568 51.827 307.06C52.4475 292.553 53.4711 276.868 54.1042 272.204C55.0618 265.13 54.7783 263.728 52.3869 263.728C50.8105 263.728 48.3371 265.535 46.8909 267.747ZM503.769 266.851C502.262 268.567 500.481 271.774 499.81 273.975C497.699 280.915 484.756 295.711 473.632 303.908C467.738 308.248 456.093 314.394 447.753 317.565C431.19 323.861 428.301 326.72 431.719 333.439C433.647 337.232 435.043 337.747 442.631 337.471C470.145 336.468 516.657 295.986 516.657 273.041C516.657 264.69 508.924 260.974 503.769 266.851ZM237.84 346.148C237.45 348.817 230.555 354.667 195.668 381.938C187.331 388.453 174.491 399.027 167.135 405.436C159.779 411.842 153.158 417.11 152.423 417.144C151.688 417.176 151.086 415.683 151.086 413.823C151.086 409.59 174.883 388.35 227.754 345.398C235.731 338.918 238.867 339.152 237.84 346.148ZM236.683 365.908C236.683 371.225 234.609 373.393 212.362 391.339C178.19 418.906 153.01 438.618 151.97 438.618C151.483 438.618 151.086 436.695 151.086 434.342C151.086 431.144 155.61 426.146 169.031 414.516C186.58 399.309 234.896 360.096 236.084 360.096C236.414 360.096 236.683 362.712 236.683 365.908ZM751.03 365.161C741.916 369.426 733.497 379.527 728.479 392.219C725.394 400.021 724.577 405.878 724.504 420.772C724.42 437.655 724.904 440.564 729.385 450.143C736.136 464.577 742.023 471.887 750.297 476.111C759.255 480.685 768.569 480.619 778.282 475.913C811.169 459.98 812.378 387.452 780.09 367.482C771.08 361.909 759.89 361.015 751.03 365.161ZM479.827 372.588C467.625 378.8 457.721 396.3 454.308 417.68C450.633 440.706 457.933 465.775 472.027 478.517C500.652 504.395 536.704 472.333 534.133 423.285C533.443 410.138 532.456 406.492 526.338 394.489C521.223 384.456 517.318 379.334 511.877 375.524C501.864 368.51 489.975 367.422 479.827 372.588ZM236.683 395.463V407.631L216.621 422.553C205.588 430.762 187.732 444.406 176.943 452.874C166.154 461.343 156.398 468.828 155.264 469.51C153.825 470.373 153.015 467.739 152.589 460.808L151.977 450.868L183.989 424.666C212.997 400.924 235.067 383.469 236.237 383.344C236.481 383.317 236.683 388.771 236.683 395.463ZM236.624 436.388L236.565 453.787L221.921 464.495C213.866 470.384 195.543 484.557 181.2 495.991L155.123 516.78L153.996 505.991C151.59 482.953 150.397 485.261 174.714 465.905C199.757 445.971 235.008 418.988 236.007 418.988C236.378 418.988 236.656 426.817 236.624 436.388ZM236.585 478.326L236.487 491.264L220.459 502.864C201.01 516.939 196.625 521.338 198.132 525.266C199.692 529.335 201.957 528.141 220.555 513.439C229.489 506.378 237.063 500.908 237.385 501.286C237.706 501.663 238.475 511.209 239.092 522.5L240.215 543.028L210.417 566.222C194.029 578.979 176.314 592.895 171.049 597.146C165.787 601.397 161.159 604.554 160.767 604.163C160.375 603.77 159.592 594.269 159.027 583.048L157.999 562.648L172.474 551.332C181.872 543.985 186.751 538.984 186.384 537.075C185.312 531.5 180.474 533.168 169.25 542.985C163.059 548.401 157.641 552.833 157.213 552.833C156.785 552.833 156.453 547.011 156.475 539.894L156.514 526.956L175.645 511.439C202.72 489.478 233.767 465.573 235.345 465.473C236.082 465.425 236.638 471.209 236.585 478.326ZM630.337 485.671C601.881 496.297 581.009 533.869 575.349 584.654C572.598 609.347 576.847 639.959 585.3 656.314C590.304 665.999 602.648 678.062 612.062 682.47C624.161 688.132 644.18 688.289 658.75 682.834C678.087 675.593 693.714 655.049 701.297 626.893C705.373 611.762 706.645 579.375 703.943 559.5C698.82 521.807 686.634 497.987 667.464 488.191C658.266 483.49 639.574 482.221 630.337 485.671ZM242.32 562.76C242.912 570.195 242.462 571.287 237.15 575.344C230.999 580.039 229.655 584.422 233.869 586.04C235.263 586.576 238.072 586.123 240.11 585.03C243.648 583.135 243.816 583.478 243.816 592.611V602.179L232.442 611.412C226.186 616.491 220.656 620.647 220.154 620.647C219.649 620.647 218.69 618.44 218.019 615.74C215.082 603.894 202.719 598.235 191.871 603.769C188.565 605.457 180.442 610.757 173.822 615.547L161.785 624.256L161.816 619.329C161.842 615.162 164.783 612.197 180.872 600.125C191.334 592.272 208.775 578.825 219.626 570.241C230.479 561.659 239.878 554.632 240.515 554.626C241.152 554.621 241.965 558.281 242.32 562.76ZM626.636 600.18C645.88 609.569 661.045 628.453 666.881 650.293C669.082 658.524 669.069 658.563 663.16 663.501C650.616 673.978 626.61 675.411 613.13 666.483C598.322 656.677 589.771 635.417 589.771 608.405V593.409L603.008 594.259C612.673 594.88 619.048 596.477 626.636 600.18ZM247.167 639.386L247.213 650.093L237.045 658.097C231.451 662.5 214.736 676.318 199.899 688.805C185.064 701.292 172.424 711.007 171.813 710.395C171.203 709.783 170.702 706.701 170.702 703.546C170.702 699.184 172.091 696.732 176.497 693.318C185.983 685.967 190.318 681.343 190.318 678.577C190.318 673.966 184.058 675.792 177.835 682.216C174.507 685.651 171.14 688.462 170.352 688.462C169.564 688.462 168.918 685.336 168.918 681.516C168.918 674.981 169.839 673.791 184.442 661.44C192.98 654.217 210.032 640.444 222.336 630.83L244.708 613.352L245.913 621.015C246.576 625.23 247.14 633.497 247.167 639.386ZM1151.05 661.115C1126.13 687.764 1113.91 697.076 1084.69 711.68C1063.76 722.138 1060.12 726.421 1071.36 727.365C1079.8 728.073 1109.04 713.489 1128.29 698.977C1148.41 683.804 1169.32 658.172 1166.84 651.717C1165.16 647.315 1162.46 648.917 1151.05 661.115ZM249.786 673.739C252.254 699.889 255.323 695.076 216.116 726.538C196.957 741.913 180.597 754.492 179.761 754.492C178.477 754.492 175.716 742.018 173.564 726.494C173.138 723.428 177.451 718.827 193.642 705.078C220.674 682.123 246.031 661.693 247.488 661.693C248.126 661.693 249.162 667.115 249.786 673.739ZM24.7765 670.572C17.0942 678.989 8.54516 694.223 3.73211 708.071C-1.31455 722.596 -1.25036 728.378 3.96928 729.128C6.83499 729.538 8.1885 727.779 10.8295 720.205C15.0773 708.016 24.9263 688.514 32.5605 677.169C35.8702 672.253 38.1653 667.561 37.6607 666.745C35.7276 663.612 29.4184 665.485 24.7765 670.572ZM62.3786 673.316C45.1308 688.091 29.1812 713.247 20.0758 740.037C13.8415 758.381 12.595 769.137 16.3434 772.251C20.6857 775.858 22.2478 773.293 28.1629 752.868C36.3018 724.77 46.0188 707.193 66.0004 684.427C74.8026 674.398 76.2186 671.912 74.3889 669.704C71.3324 666.019 70.6601 666.223 62.3786 673.316ZM225.537 697.535C216.542 705.252 214.729 709.877 220.703 709.877C225.96 709.877 239.349 696.907 237.924 693.193C236.303 688.964 234.996 689.422 225.537 697.535ZM1135.93 713.864C1130.8 718.051 1121.57 724.327 1115.42 727.813C1096.11 738.759 1104.56 745.064 1124.82 734.826C1136.59 728.883 1154.03 713.036 1152.83 709.383C1151.33 704.809 1144.96 706.497 1135.93 713.864ZM253.779 720.139C254.581 725.783 255.275 730.886 255.322 731.476C255.37 732.069 248.987 737.628 241.141 743.828C233.295 750.029 219.467 761.447 210.412 769.199C200.982 777.276 193.087 782.764 191.932 782.048C190.822 781.363 188.32 777.198 186.375 772.793C183.418 766.105 183.231 764.418 185.239 762.553C187.288 760.649 210.595 741.752 241.84 716.662C246.359 713.033 250.567 710.022 251.19 709.97C251.812 709.918 252.977 714.494 253.779 720.139ZM262.116 752.922L264.841 761.167L254.328 770.427C248.547 775.52 243.816 780.844 243.816 782.259C243.816 787.079 250.102 784.845 259.37 776.732L268.619 768.633L271.376 773.966C272.892 776.9 274.132 779.589 274.132 779.944C274.132 781.179 234.521 814.28 232.455 814.774C231.31 815.047 228.783 814.093 226.841 812.652C223.428 810.12 223.624 809.71 232.61 800.555C239.333 793.703 241.476 790.373 240.34 788.541C238.414 785.428 233.687 788.173 222.295 799.018L214.836 806.119L207.036 799.721C202.745 796.202 199.234 792.376 199.234 791.218C199.234 787.67 256.368 741.276 258.2 743.337C258.854 744.074 260.618 748.387 262.116 752.922ZM286.532 795.704C291.424 801.793 291.991 803.372 289.953 805.205C288.606 806.413 282.625 811.955 276.662 817.517L265.816 827.63L254.817 823.913C248.766 821.868 243.816 819.646 243.816 818.977C243.816 818.306 249.633 812.826 256.745 806.797C275.376 791.002 278.467 788.525 279.629 788.459C280.2 788.426 283.306 791.687 286.532 795.704ZM889.885 790.766C882.868 793.338 879.652 796.382 881.239 798.952C884.282 803.876 901.843 798.003 901.843 792.06C901.843 787.898 898.653 787.554 889.885 790.766ZM311.224 819.095L323.657 828.375L317.214 833.498C310.58 838.774 308.065 837.801 311.541 831.303C314.515 825.742 309.028 824.454 302.607 829.205C296.829 833.48 292.469 833.878 282.326 831.061L275.362 829.124L285.892 819.552C291.684 814.287 296.956 809.942 297.607 809.897C298.257 809.852 304.385 813.991 311.224 819.095ZM336.546 837.239C336.546 842.177 317.016 857.455 314.96 854.125C312.818 850.659 315.653 846.206 324.817 838.645C334.092 830.993 336.546 830.7 336.546 837.239ZM1028.46 838.645C1010.55 854.384 987.474 866.228 955.361 876.172C946.29 878.981 941.821 881.288 941.423 883.365C940.462 888.396 948.167 888.874 964.397 884.793C999.014 876.089 1044.5 846.669 1040.3 835.706C1038.76 831.699 1035.41 832.531 1028.46 838.645ZM331.817 857.169C330.93 859.48 322.143 866.322 313.829 871.173C308.286 874.407 314.514 866.206 321.87 860.585C330.64 853.886 333.447 852.92 331.817 857.169ZM1022.21 874.221C1018.29 877.2 1009.22 882.539 1002.06 886.087C987.501 893.302 986.214 894.523 989.274 898.213C992.02 901.524 997.384 900.241 1012.63 892.629C1025.62 886.148 1037.37 876.163 1037.37 871.619C1037.37 866.974 1030.12 868.218 1022.21 874.221ZM324.958 877.821C323.872 880.596 311.673 889.026 310.476 887.829C308.649 885.998 312.224 881.533 318.305 878.054C325.395 874 326.467 873.962 324.958 877.821ZM316.966 901.616C315.156 907.102 310.792 911.537 307.206 911.537C304.656 911.537 308.798 901.327 312.855 897.615C318.514 892.435 319.633 893.523 316.966 901.616ZM309.751 924.475C309.724 925.703 308.13 929.918 306.205 933.844L302.708 940.983L303.784 932.952C304.374 928.535 305.214 924.32 305.649 923.583C306.926 921.422 309.801 922.048 309.751 924.475Z" fill="black"/>
</svg>
