<svg width="1274" height="1071" viewBox="0 0 1274 1071" fill="none" xmlns="http://www.w3.org/2000/svg">
<path fill-rule="evenodd" clip-rule="evenodd" d="M673.947 1.48523C627.811 3.32825 584.306 7.16774 522.334 14.8663C441.58 24.8968 393.388 35.8426 352.196 53.5146C305.909 73.3722 282.273 94.1807 264.581 130.649C248.128 164.564 243.086 191.42 241.864 251.632C240.619 313.094 245.383 391.618 255.727 480.051C257.66 496.572 259.241 510.421 259.241 510.828C259.241 512.933 253.124 510.596 233.538 501.004C209.216 489.095 179.193 470.005 160.396 454.499C147.673 444.002 121.223 417.617 112.395 406.614L107.637 400.685L113.161 392.653C120.839 381.491 130.007 360.938 132.638 348.995C133.851 343.482 134.481 333.928 134.035 327.763C133.352 318.306 132.464 315.899 128.354 312.363C118.61 303.979 102.842 309.943 96.9148 324.254L94.6816 329.647L90.5452 320.716C84.8143 308.345 71.6507 294.758 61.7155 290.963C38.7863 282.205 14.0644 292.858 4.09008 315.795C-3.77419 333.879 -0.053419 360.831 13.1512 381.413C25.7048 400.981 51.6788 418.783 67.6766 418.787C74.4796 418.789 75.5748 419.527 83.2286 429.271C102.512 453.822 135.867 483.664 168.118 505.217C189.447 519.47 234.526 542.725 253.89 549.463C265.364 553.456 265.489 553.572 266.006 560.632C266.964 573.683 275.394 629.979 278.829 646.268C286.005 680.288 296.095 700.472 315.575 719.766C326.052 730.144 332.065 734.319 346.953 741.554C364.387 750.025 388.957 757.679 407.732 760.484C414.805 761.542 416.203 762.38 416.196 765.563C416.191 767.66 413.777 792.256 410.831 820.222C405.587 869.993 405.544 871.165 408.787 875.531C414.664 883.442 423.192 882.566 437.226 872.61C462.927 854.376 521.507 809.996 539.909 794.812C550.557 786.029 559.913 779.522 560.701 780.352C563.368 783.166 566.034 807.421 566.004 828.594C565.965 854.767 562.774 870.295 553.426 889.793C547.472 902.215 543.51 907.523 531.459 919.232C515.108 935.116 498.856 944.708 472.867 953.809C453.418 960.621 448.996 963.498 446.538 970.953C443.408 980.437 451.203 1008.24 464.227 1034.05C476.977 1059.31 494.662 1073.21 510.895 1070.71C521.214 1069.13 532.287 1058.15 535.639 1046.18C540.383 1029.23 534.888 1004.81 522.029 985.695C516.419 977.356 516.072 976.182 518.736 974.569C536.737 963.675 546.321 956.182 560.849 941.643C575.422 927.059 579.196 922.01 586.285 907.608C598.257 883.285 601.881 867.579 602.95 835.388C603.786 810.19 602.52 795.837 597.083 768.928L595.911 763.13H626.61C659.617 763.13 711.187 760.657 754.154 757.015C785.345 754.371 798.443 755.916 826.734 765.577C873.622 781.588 898.661 806.029 900.95 838.019C902.544 860.31 897.926 877.542 879.424 918.351C864.34 951.62 862.331 962.672 869.98 970.325C879.155 979.5 915.772 985.29 946.851 982.478C963.956 980.93 970.504 979.385 979.35 974.81C996.512 965.932 998.308 944.531 983.263 928.204C972.7 916.74 961.185 912.383 941.065 912.231C931.995 912.161 924.571 911.521 924.566 910.805C924.56 910.09 926.558 903.537 929.005 896.243C938.477 868.023 941.172 842.448 936.868 821.648C931.734 796.846 912.258 770.184 887.415 753.952C876.169 746.605 874.931 745.306 878.497 744.601C880.774 744.152 899.494 741.265 920.096 738.185C1009.06 724.892 1108.84 700.281 1120.31 688.804C1126.93 682.183 1125.47 676.377 1111.82 655.078C1081.51 607.782 1067.39 568.679 1062.88 519.593L1061.74 507.104L1075.63 498.183C1097.88 483.892 1121.79 463.739 1145.73 439.076C1175.39 408.53 1194.92 382.349 1213.62 348.07C1215.62 344.415 1218.66 342.361 1224.33 340.845C1242.33 336.026 1260.61 317.695 1268.96 296.084C1274.4 282.032 1275.69 256.603 1271.59 244.269C1267.91 233.194 1256.17 219.537 1246.58 215.178C1237.1 210.871 1220.26 210.86 1210.84 215.157C1198.3 220.866 1186.66 236.684 1182.42 253.755L1181.1 259.107L1177.05 254.049C1166.82 241.257 1155.85 238.897 1147.14 247.61C1141.94 252.818 1141.73 253.573 1142.61 264.517C1143.9 280.532 1154.93 302.4 1169.86 318.534L1181.16 330.743L1174.82 342.204C1157.4 373.691 1128.54 408.796 1097.2 436.616C1079.31 452.495 1060.74 466.477 1059.46 465.027C1059.1 464.618 1057.05 436.598 1054.9 402.758C1045.56 255.496 1027.6 147.056 1003.17 90.3805C993.592 68.1553 986.131 56.2604 973.606 43.245C954.43 23.3179 930.05 11.2035 898.148 5.74934C867.249 0.466476 753.539 -1.69591 673.947 1.48523ZM858.559 29.9335C918.396 34.1851 944.789 46.0551 965.43 78.0002C995.738 124.906 1018.08 251.184 1028.89 436.63C1031.5 481.523 1035.43 527.998 1037.93 543.669C1044.24 583.121 1055.04 613.315 1075.28 647.998C1082.64 660.607 1088.65 671.503 1088.65 672.211C1088.65 674.218 1039.23 687.546 1006.6 694.34C888.45 718.94 733.676 734.478 606.016 734.56L568.405 734.583L551.608 749.302C525.668 772.034 469.023 816.518 456.07 824.328C454.934 825.013 456.243 818.153 459.001 808.966C463.687 793.351 480.418 729.15 480.418 726.781C480.418 726.18 472.992 722.212 463.919 717.962C425.856 700.137 402.531 668.905 394.114 624.499C392.589 616.453 389.676 595.177 387.643 577.219C385.608 559.264 381.965 528.113 379.55 507.996C368.029 412.088 367.3 402.913 364.212 315.123C361.168 228.566 364.382 162.335 373.327 127.353C383.876 86.0985 410.806 61.4095 455.446 52.0623C494.946 43.7928 610.68 31.905 677.515 29.2537C712.523 27.8657 835.979 28.3295 858.559 29.9335ZM821.774 55.6431C821.144 57.2863 821.337 59.2917 822.202 60.0999C823.069 60.9081 832.825 61.9179 843.882 62.3461C864.539 63.1418 869 61.9572 865.665 56.5619C864.45 54.594 859.054 53.8018 843.49 53.3076C825.521 52.7367 822.776 53.0329 821.774 55.6431ZM895.422 63.149C892.219 66.3516 895.34 69.5024 907.164 75.0029C920.333 81.1279 932.555 92.1307 939.745 104.333C943.426 110.582 947.208 111.819 948.927 107.335C953.484 95.4564 903.987 54.5797 895.422 63.149ZM385.695 77.5703C380.403 83.2135 372.059 90.6909 367.154 94.1896C357.177 101.305 312.131 134.806 296.085 147.043C290.35 151.414 285.357 154.69 284.988 154.323C284.621 153.953 285.7 150.885 287.387 147.502C289.521 143.225 299.688 134.395 320.778 118.5C348.657 97.4903 357.176 88.7212 349.711 88.7212C348.32 88.7212 337.432 96.3484 325.514 105.671C313.597 114.993 303.374 122.62 302.798 122.62C302.222 122.62 304.259 119.451 307.325 115.578C314.596 106.395 331.878 93.492 347.533 85.5561C358.918 79.7862 389.881 67.6147 393.722 67.4006C394.599 67.3507 390.987 71.9288 385.695 77.5703ZM365.8 111.396C364.319 115.116 362.17 122.702 361.025 128.256C359.013 138.008 358.433 138.754 344.019 150.18C335.813 156.685 316.429 172.387 300.945 185.071C285.461 197.756 272.526 207.868 272.199 207.544C271.875 207.217 272.135 203.658 272.779 199.635C273.872 192.785 275.565 191.026 299.193 172.187C313.079 161.117 329.818 148.044 336.389 143.138C347.03 135.193 351.869 127.972 346.554 127.972C344.314 127.972 307.991 154.945 290.505 169.593C283.665 175.322 277.766 179.101 277.395 177.988C275.708 172.926 281.826 165.643 296.179 155.627C304.616 149.739 324.028 135.546 339.317 124.088C354.605 112.629 367.425 103.564 367.803 103.942C368.183 104.32 367.28 107.674 365.8 111.396ZM954.878 137.698C954.878 143.165 960.311 160.819 962.389 162.103C963.587 162.845 965.519 162.662 966.682 161.696C968.305 160.349 968.209 157.422 966.266 149.09C964.873 143.122 963.3 137.534 962.769 136.674C961.174 134.092 954.878 134.909 954.878 137.698ZM355.679 158.126C354.723 164.706 352.67 166.669 318.102 194.025C297.991 209.94 278.929 225.432 275.74 228.45L269.943 233.937L270.045 226.896C270.141 220.236 271.022 219.134 286.369 206.475C315.564 182.391 354.646 151.22 355.679 151.193C356.236 151.179 356.236 154.299 355.679 158.126ZM352.501 190.384C351.325 194.916 345.4 200.521 323.534 217.781C308.413 229.717 295.721 240.484 295.33 241.71C294.938 242.938 295.815 244.399 297.276 244.961C298.947 245.601 309.123 238.645 324.627 226.265C338.206 215.421 349.918 206.532 350.655 206.513C351.391 206.491 351.992 215.99 351.992 227.617V248.759L340.844 258.324C321.37 275.033 296.233 297.747 282.875 310.703L269.943 323.248V308.639V294.029L285.534 280.394C294.11 272.895 311.367 258.749 323.883 248.959C345.054 232.399 349.124 227.847 345.031 225.316C343.225 224.201 320.118 241.585 290.179 266.581C279.236 275.718 269.805 283.193 269.22 283.193C268.637 283.193 268.159 280.451 268.159 277.101C268.159 272.116 269.618 269.723 276.186 263.941C287.259 254.19 286.899 245.899 275.781 254.647C269.954 259.231 268.653 259.143 269.201 254.201C269.445 251.992 269.713 248.524 269.795 246.492C269.888 244.188 274.44 239.155 281.899 233.111C350.439 177.575 352.861 175.788 353.43 180.327C353.731 182.724 353.312 187.249 352.501 190.384ZM834.887 253.514C809.07 264.383 790.779 290.232 790.779 315.845C790.779 323.517 791.588 326.152 794.906 329.271C803.898 337.719 819.318 331.053 819.318 318.718C819.318 295.122 840.415 276.185 864.291 278.351C882.439 279.996 896.918 291.811 901.499 308.712C905.082 321.929 915.537 326.356 925.206 318.746C939.42 307.563 918.772 269.238 891.12 255.48C882.291 251.088 878.361 250.288 863.018 249.776C847.337 249.252 843.936 249.703 834.887 253.514ZM350.605 266.028C351.225 269.279 349.918 271.466 345.015 275.37C333.267 284.726 301.462 312.473 286.977 326.001C275.495 336.725 272.536 338.714 272.024 336.054C271.628 333.997 274.327 329.685 279.138 324.687C289.084 314.352 347.173 261.805 348.662 261.793C349.285 261.787 350.157 263.695 350.605 266.028ZM545.975 265.388C528.928 269.698 508.792 284.496 499.542 299.508C494.111 308.323 489.336 325.745 489.336 336.743C489.336 346.012 490.001 348.251 493.925 352.176C497.73 355.981 499.619 356.59 504.95 355.723C514.277 354.21 516.592 350.898 518.084 336.945C519.641 322.368 524.17 312.63 532.997 304.876C542.008 296.964 550.468 293.893 563.131 293.938C583.673 294.011 598.624 305.13 605.345 325.328C609.287 337.18 612.423 340.286 620.437 340.286C641.074 340.286 638.172 311.123 615.129 286.958C601.58 272.751 585.425 265.254 566.407 264.351C558.844 263.992 549.649 264.458 545.975 265.388ZM351.992 286.608C351.992 291.172 347.139 295.986 312.305 325.977C274.98 358.113 272.583 359.86 272.032 355.339C271.537 351.289 273.808 348.342 286.435 336.632C309.68 315.078 348.698 281.409 350.432 281.409C351.29 281.409 351.992 283.748 351.992 286.608ZM351.992 315.094V327.369L341.736 335.107C336.094 339.362 319.329 353.004 304.479 365.423C289.626 377.841 276.583 388.553 275.494 389.227C274.126 390.073 273.51 387.222 273.51 380.028V369.603L312.102 336.211C333.328 317.845 350.986 302.819 351.343 302.819C351.7 302.819 351.992 308.343 351.992 315.094ZM350.248 373.528C295.895 419.488 279.609 432.716 278.665 431.66C278.041 430.958 277.013 423.838 276.384 415.836L275.239 401.285L298.007 381.795C310.532 371.075 328.002 356.422 336.831 349.232L352.884 336.16L353.815 352.943C354.72 369.222 354.613 369.839 350.248 373.528ZM355.56 390.988C355.56 396.305 355.99 401.777 356.516 403.147C357.135 404.76 350.844 410.887 338.679 420.523C328.342 428.709 319.886 436.511 319.886 437.858C319.886 443.91 325.829 441.506 340.461 429.545C349.003 422.559 356.393 417.244 356.881 417.733C357.37 418.221 358.733 427.169 359.91 437.617L362.052 456.615L346.766 469.355C338.358 476.363 321.993 490.41 310.397 500.572C298.803 510.733 288.911 518.642 288.415 518.146C287.919 517.652 286.638 508.589 285.57 498.009L283.624 478.772L297.742 465.835C310.984 453.703 311.674 452.713 308.868 449.867C306.061 447.016 305.215 447.465 294.936 457.273C282.361 469.271 280.716 468.74 280.672 452.659L280.645 442.82L312.191 416.084C329.541 401.381 345.794 387.57 348.311 385.393C350.826 383.215 353.485 381.409 354.222 381.379C354.959 381.347 355.56 385.671 355.56 390.988ZM777.401 382.444C774.458 382.894 758.806 385.318 742.619 387.832C717.337 391.761 708.663 392.321 681.082 391.809C613.801 390.562 599.687 390.974 589.506 394.487C569.916 401.245 560.541 414.598 559.287 437.522C556.747 484.026 583.802 542.841 621.584 572.952C645.983 592.395 671.464 601.27 702.486 601.129C738.372 600.965 770.209 587.534 796.237 561.581C819.514 538.368 832.403 515.891 840.873 483.746C845.536 466.053 847.302 434.134 844.391 420.145C839.463 396.462 823.422 383.67 796.984 382.342C789.155 381.95 780.344 381.994 777.401 382.444ZM364.478 475.166C364.478 482.026 363.579 484.21 358.991 488.497C352.711 494.365 353.61 498.128 360.941 496.662C364.97 495.855 366.083 496.401 366.943 499.604C369.455 508.972 368.088 514.143 361.895 518.701C358.562 521.154 350.155 528.262 343.211 534.496C332.992 543.672 330.588 545.135 330.588 542.179C330.588 540.17 328.783 536.434 326.575 533.877C323.359 530.154 319.977 528.848 309.557 527.308C302.304 526.236 296.819 524.583 297.156 523.572C297.87 521.427 361.189 467.193 363.14 467.055C363.877 467.004 364.478 470.652 364.478 475.166ZM686.422 482.078C724.306 491.691 756.43 513.381 777.187 543.363C783.339 552.252 783.045 552.796 766.019 563.917C727.69 588.957 683.51 590.888 646.404 569.146C631.301 560.297 611.499 540.398 600.954 523.476C592.037 509.165 584.934 492.765 586.533 490.178C587.053 489.334 591.375 487.35 596.134 485.769C624.348 476.395 658.518 474.998 686.422 482.078ZM372.357 544.757L373.596 559.214L346.575 583.116C331.714 596.262 315.816 610.353 311.248 614.43L302.941 621.843L301.749 615.322C300.708 609.621 301.157 608.358 305.317 605.282C312.698 599.823 320.079 591.537 319.392 589.477C318.136 585.708 315.072 586.588 307.812 592.804L300.38 599.168L299.272 594.759C298.664 592.333 298.437 589.207 298.769 587.81C299.34 585.412 319.884 566.274 353.639 536.694C370.921 521.55 370.348 521.302 372.357 544.757ZM309.047 564.445C309.462 564.812 307.076 567.546 303.744 570.522C298.293 575.389 297.558 575.612 296.425 572.741C295.731 570.986 295.109 567.706 295.039 565.455C294.925 561.683 295.444 561.455 301.603 562.568C305.283 563.233 308.631 564.077 309.047 564.445ZM377.574 594.527L378.582 607.017L346.295 634.671C328.539 649.881 313.44 662.555 312.742 662.835C311.465 663.349 306.68 647.303 305.138 637.347C304.38 632.451 305.93 630.516 323.282 614.681C333.717 605.159 349.445 591.205 358.235 583.673L374.217 569.976L375.392 576.008C376.038 579.325 377.019 587.658 377.574 594.527ZM354.204 606.33C346.174 614.125 344.583 618.613 349.847 618.613C354.454 618.613 367 605.27 365.664 601.791C364.071 597.637 362.527 598.249 354.204 606.33ZM383.214 631.42C384.386 639.236 384.284 639.442 375.778 646.361C371.035 650.22 358.037 661.76 346.896 672.006L326.639 690.636L323.325 686.293C321.502 683.904 319.085 679.749 317.954 677.06C315.612 671.49 313.561 673.649 356.378 636.628C381.775 614.669 380.733 614.87 383.214 631.42ZM391.356 657.947L394.553 665.893L384.685 675.162C375.516 683.778 373.603 687.967 378.152 689.483C379.174 689.824 384.05 686.468 388.991 682.024L397.974 673.947L401.044 678.632L404.113 683.319L385.263 702.174L366.413 721.029L360.782 718.362L355.149 715.694L364.143 705.851C370.411 698.993 372.676 695.268 371.62 693.558C370.432 691.637 368.343 692.552 361.938 697.801C357.447 701.484 352.941 706.046 351.928 707.942C350.913 709.839 349.452 711.389 348.684 711.389C346.682 711.389 332.372 698.911 332.372 697.166C332.372 694.888 384.616 648.819 386.491 649.444C387.407 649.751 389.598 653.576 391.356 657.947ZM990.997 671.189C984.999 673.838 983.293 678.654 987.745 680.363C991.434 681.779 1007.08 674.447 1006.18 671.722C1005.11 668.473 997.734 668.213 990.997 671.189ZM416.019 698.071C419.064 701.539 421.556 704.699 421.556 705.091C421.556 706.511 397.631 729.231 396.133 729.231C391.963 729.231 378.546 724.995 377.536 723.361C376.513 721.705 406.459 692.012 409.331 691.835C409.966 691.796 412.975 694.602 416.019 698.071ZM441.667 720.231L453.627 728.18L448.852 733.167C446.226 735.909 443.023 738.151 441.735 738.151C438.886 738.151 438.82 737.204 441.342 732.49C442.744 729.87 442.748 728.305 441.353 726.91C439.96 725.516 437.953 726.374 434.201 729.969C429.249 734.715 428.427 734.903 417.942 733.686L406.898 732.403L417.305 721.882C423.031 716.096 428.163 711.568 428.71 711.821C429.258 712.074 435.089 715.859 441.667 720.231ZM465.654 736.505C465.961 739.836 463.92 742.466 456.759 747.964C444.84 757.117 444.455 757.242 445.197 751.691C445.873 746.644 460.412 730.596 463.417 731.58C464.429 731.911 465.435 734.128 465.654 736.505ZM461.844 757.197C460.938 759.977 455.94 764.052 445.058 770.889C439.773 774.207 446.604 765.146 454.049 758.96C462.087 752.282 463.556 751.95 461.844 757.197ZM457.23 774.571C457.23 777.094 442.973 788.716 441.585 787.326C440.124 785.867 444.145 780.837 450.179 776.575C457.577 771.349 457.23 771.449 457.23 774.571ZM449.517 799.053C448.342 803.111 445.584 807.625 443.387 809.084C439.519 811.653 439.393 811.55 439.393 805.789C439.393 801.462 440.731 798.743 444.298 795.822C451.187 790.181 451.948 790.654 449.517 799.053ZM441.617 828.394L438.501 837.172L437.925 830.106C437.506 824.963 438.198 822.42 440.47 820.758C444.953 817.48 445.113 818.549 441.617 828.394Z" fill="black"/>
</svg>
