<svg width="922" height="1125" viewBox="0 0 922 1125" fill="none" xmlns="http://www.w3.org/2000/svg">
<path fill-rule="evenodd" clip-rule="evenodd" d="M725.635 3.82862C720.467 13.4807 729.502 40.0169 741.252 49.6994C755.59 61.5166 769.601 61.1474 801.643 48.1121C811.264 44.1992 819.321 41.1976 819.552 41.4437C819.78 41.688 818.858 47.5075 817.504 54.3738C814.117 71.5504 814.047 94.6784 817.365 101.052C823.587 113.012 836.23 119.809 863.798 126.014C874.716 128.471 883.951 130.779 884.318 131.145C884.687 131.509 880.892 137.334 875.883 144.088C859.576 166.079 856.383 177.538 863.368 188.993C867.693 196.088 869.133 197.379 883.166 206.758L893.383 213.587L882.763 217.559C865.082 224.17 858.85 232.747 866.618 239.778C869.97 242.809 870.924 242.638 891.715 235.308C916.333 226.63 922 223.025 922 216.045C922 208.886 918.436 204.943 901.669 193.556C881.123 179.603 879.885 178.121 882.838 170.998C884.122 167.899 888.255 161.464 892.022 156.698C918.773 122.862 915.778 114.099 875.023 106.94C856.286 103.647 843.723 99.5615 839.064 95.2473C833.37 89.97 833.249 82.7559 838.394 55.4314C842.84 31.8112 841.934 23.9978 834.253 19.7033C828.124 16.2772 820.201 18.2408 793.826 29.7228C772.061 39.1983 762.735 40.8873 754.805 36.7871C748.71 33.6357 742.272 22.0592 740.613 11.271C740.035 7.51149 738.772 3.43449 737.807 2.20746C734.989 -1.37374 727.915 -0.430291 725.635 3.82862ZM385.089 58.1227C380.674 58.5097 358.6 60.0542 336.035 61.5558C237.729 68.0976 184.703 76.1517 141.19 91.1524C100.019 105.347 76.2628 119.112 54.2013 141.553C31.3281 164.82 16.6424 195.571 8.76359 236.696C-4.05451 303.597 -2.74344 441.607 12.2508 603.817C24.6123 737.537 29.4944 756.078 60.4409 786.79C74.092 800.337 78.5371 803.483 96.3265 812.177C110.443 819.078 123.565 823.85 139.376 827.833C156.321 832.102 162.113 834.267 162.096 836.331C162.081 837.852 158.551 862.737 154.249 891.627C145.289 951.808 145.482 954.105 159.727 956.954C164.334 957.874 169.648 954.94 200.584 934.395C239.784 908.36 280.091 879.849 307.495 858.774L325.333 845.056L326.46 868.829C327.079 881.905 327.682 927.384 327.798 969.895L328.008 1047.19L320.427 1045.69C316.259 1044.87 304.819 1044.23 295.009 1044.26C279.363 1044.31 275.857 1044.93 266.469 1049.26C247.199 1058.15 237.153 1071.61 237.076 1088.63C236.988 1108.26 251.646 1120.37 280.039 1124.12C305.583 1127.49 339.984 1120.85 352.795 1110.07C362.827 1101.63 363.683 1097.36 365.737 1045.54C367.524 1000.37 366.673 888.702 364.297 856.933L363.23 842.666L453.385 842.605L543.542 842.544L544.523 849.739C547.057 868.307 547.833 993.775 545.67 1035.14C543.117 1083.98 543.7 1088.45 553.613 1096.01C564.526 1104.33 578.336 1107.92 603.182 1108.88C630.163 1109.93 643.413 1107.65 656.564 1099.67C667.763 1092.88 672.274 1085.06 672.274 1072.43C672.274 1060.41 670.369 1055.73 661.616 1046.24C647.287 1030.69 620.34 1023.79 596.152 1029.48L585.137 1032.07L586.131 986.411C586.915 950.335 584.479 850.802 582.577 841.258C582.328 839.999 595.474 838.284 620.545 836.308C733.232 827.424 817.791 813.854 883.382 794.129C908.811 786.481 909.885 781.824 893.009 752.351C871.209 714.274 862.99 695.389 855.475 666.103C846.9 632.688 846.228 623.376 843.433 499.461C839.915 343.52 828.715 240.466 808.466 177.706C790.963 123.458 765.662 94.1968 722.708 78.5237C697.346 69.2693 676.681 66.5638 592.005 61.4132C549.851 58.8486 403.37 56.5193 385.089 58.1227ZM513.519 87.3501C654.279 92.0067 693.921 96.5189 725.526 111.479C740.984 118.794 755.393 132.611 765.368 149.675C787.774 188.014 804.27 283.294 811.396 415.526C812.374 433.672 813.963 483.839 814.925 527.006C815.888 570.175 817.231 608.272 817.911 611.668L819.145 617.84L811.985 610.316C805.776 603.79 803.824 602.79 797.296 602.79C787.806 602.79 783.657 605.005 780.036 612.007C776.338 619.156 777.639 625.448 785.48 638.355C799.759 661.856 809.636 688.148 809.613 702.592C809.589 718.044 802.558 730.001 789.331 737.074C783.172 740.368 779.219 740.99 765.029 740.903C754.633 740.839 743.257 739.533 735.597 737.523C718.175 732.954 690.507 720.987 670.61 709.412L653.783 699.626L651.621 689.106C644.961 656.675 626.736 626.082 606.396 613.184C585.25 599.775 567.218 614.81 576.837 637.831C579.47 644.132 579.452 644.207 575.5 643.13C543.103 634.298 514.639 650.317 508.036 681.098C503.209 703.603 517.212 727.01 542.716 739.064C560.543 747.489 571.529 749.638 591.769 748.657C609.204 747.812 622.45 743.787 629.858 737.084C632.846 734.381 634.799 735.08 659.356 747.653C700.85 768.898 726.627 777.134 756.81 778.784C779.228 780.011 792.472 777.66 809.061 769.515C823.626 762.363 833.722 752.146 841.078 737.113C843.682 731.789 846.378 728.08 847.068 728.872C847.756 729.662 852.81 738.888 858.297 749.376L868.273 768.445L862.583 770.25C835.42 778.866 781.579 788.809 722.219 796.173C675.192 802.006 657.345 803.729 578.626 810.042C546.868 812.589 362.287 813.303 337.468 810.975L322.848 809.604L308.927 820.884C279.417 844.799 209.445 895.424 201.87 898.344C200.587 898.838 202.253 891.645 205.949 880.732C213.964 857.065 226.216 816.657 228.801 805.368L230.808 796.606L242.395 794.25C270.05 788.63 299.138 777.748 338.274 758.377L365.483 744.909L373.953 749.517C398.329 762.782 435.223 758.763 463.722 739.735C484.037 726.171 494.668 704.276 490.462 684.665C486.586 666.597 475.889 653.872 459.81 648.198C451.332 645.207 433.4 644.776 424.438 647.346C421.076 648.309 418.07 648.844 417.758 648.534C417.448 648.221 417.929 644.034 418.827 639.226C421.718 623.754 415.593 615.274 401.528 615.274C379.368 615.274 349.228 662.816 347.248 700.893L346.738 710.689L318.198 725.012C271.729 748.331 232.902 759.743 200.098 759.724C175.317 759.711 171.266 758.243 164.311 746.769C151.115 725 144.256 696.812 140.778 650.051C139.756 636.319 136.374 591.777 133.263 551.069C128.047 482.837 127.608 470.645 127.648 395.016C127.721 254.482 134.194 193.427 153.193 154.089C165.499 128.607 190.589 109.957 223.658 101.712C243.829 96.6848 326.549 89.6169 398.467 86.7758C429.265 85.5595 464.753 85.7361 513.519 87.3501ZM159.846 123.661C153.739 129.891 146.918 135.948 144.691 137.119C142.463 138.293 120.529 152.859 95.9466 169.489C71.3646 186.12 50.9245 199.726 50.525 199.726C50.1254 199.726 51.1814 196.828 52.8706 193.286C55.2484 188.301 62.5546 182.236 85.1834 166.459C101.266 155.247 116.726 144.883 119.542 143.426C124.772 140.722 126.75 133.738 122.286 133.738C120.038 133.738 81.2145 159.35 74.0082 165.589C70.8027 168.364 70.7278 168.323 72.5776 164.795C77.3259 155.734 98.5688 140.062 118.72 130.753C130.154 125.472 165.661 112.695 169.657 112.424C170.369 112.376 165.954 117.434 159.846 123.661ZM616.924 120.426C612.7 125.514 619.095 128.384 634.71 128.407C642.126 128.418 651.19 128.923 654.85 129.527C660.137 130.401 661.748 130.002 662.675 127.585C664.859 121.896 659.609 119.9 639.155 118.643C621.895 117.582 619.1 117.805 616.924 120.426ZM693.085 131.361C690.01 134.434 692.762 137.692 702.651 142.682C716.045 149.443 726.393 158.642 734.083 170.627C741.125 181.603 743.155 183.124 746.412 179.867C752.534 173.748 730.101 146.436 710.355 135.967C699.471 130.196 695.348 129.097 693.085 131.361ZM139.775 152.91C139.049 154.626 136.342 162.644 133.757 170.729L129.059 185.425L93.4137 211.422C73.8084 225.72 53.1078 241.065 47.4123 245.522C41.715 249.979 36.7151 253.284 36.2995 252.868C35.8839 252.453 36.13 248.825 36.8453 244.807C37.9174 238.788 39.628 236.448 46.5365 231.543C51.1493 228.267 69.7931 215.153 87.966 202.401C106.137 189.65 120.757 178.414 120.455 177.433C119.043 172.857 112.437 175.544 93.8935 188.241C77.5472 199.434 56.7539 214.538 43.0992 225.142C41.6222 226.289 41.8291 224.333 43.7395 219.077C46.417 211.718 48.9214 209.74 92.3006 180.72C117.455 163.891 138.726 150.048 139.567 149.955C140.407 149.864 140.501 151.195 139.775 152.91ZM125.477 204.631C124.858 208.31 122.614 212.697 120.491 214.383C108.346 224.03 33.1476 278.252 32.6303 277.737C32.2914 277.398 32.4983 274.354 33.0887 270.97C34.0662 265.377 38.1974 261.821 78.9652 231.502C103.606 213.175 124.407 198.128 125.186 198.062C125.967 197.996 126.097 200.953 125.477 204.631ZM752.004 209.257C750.757 212.505 755.249 233.464 757.721 235.936C759.175 237.39 760.429 237.193 762.421 235.199C764.826 232.797 764.846 231.222 762.6 221.592C761.201 215.603 759.525 209.839 758.872 208.781C757.213 206.099 753.108 206.382 752.004 209.257ZM121.363 233.651L120.743 242.611L90.8522 263.922C56.7717 288.222 55.6622 289.238 59.5954 292.502C61.9125 294.425 63.5678 293.899 69.8734 289.229C95.135 270.528 117.862 254.757 118.552 255.447C120.282 257.177 116.877 298.207 114.838 300.2C113.67 301.341 100.754 312.026 86.1342 323.945C71.5145 335.862 53.3165 351.31 45.6928 358.276C38.0708 365.241 31.0053 370.939 29.9921 370.939C28.8541 370.939 28.2868 365.751 28.508 357.385C28.8041 346.208 29.523 343.215 32.616 340.306C37.4429 335.764 94.6534 292.825 104.592 286.281C111.615 281.659 114.325 276.171 110.691 273.927C109.059 272.918 69.538 300.624 47.0663 318.528C39.2177 324.783 32.1933 329.903 31.4584 329.909C30.7235 329.916 30.1205 327.235 30.1205 323.957C30.1205 318.992 31.6153 316.734 39.0393 310.474C43.9447 306.338 47.9581 302.176 47.9581 301.222C47.9581 297.218 42.3339 297.844 36.1871 302.532L29.5908 307.562L30.9143 298.677C31.6421 293.79 32.3627 289.709 32.5179 289.611C32.6713 289.511 50.0541 276.619 71.147 260.962C116.183 227.53 119.913 224.827 121.092 224.75C121.583 224.718 121.704 228.724 121.363 233.651ZM222.767 288.9C220.376 291.289 219.199 294.844 219.199 299.672C219.199 303.635 220.804 310.023 222.767 313.868C229.17 326.417 226.814 333.486 216.229 333.486C209.007 333.486 205.591 338.403 209.296 343.468C214.6 350.723 234.473 345.4 239.682 335.328C243.424 328.093 243.064 323.422 237.911 312.354C235.469 307.107 233.469 299.843 233.469 296.214C233.469 290.021 231.009 285.333 227.761 285.333C226.976 285.333 224.729 286.938 222.767 288.9ZM115.673 316.097C115.613 321.351 113.832 323.229 96.6601 336.161C86.2394 344.009 67.4172 359.056 54.831 369.601C42.2465 380.147 31.5368 388.774 31.0338 388.774C30.5326 388.774 30.1205 387.34 30.1205 385.585C30.1205 381.665 40.3807 371.72 69.3258 347.586C91.1965 329.352 114.417 310.563 115.295 310.389C115.539 310.34 115.711 312.909 115.673 316.097ZM115.741 337.529C115.741 342.976 113.39 345.218 79.734 371.861C59.9289 387.539 40.6643 403.068 36.9238 406.369L30.1205 412.374L30.2401 406.369C30.3453 401.015 32.2093 398.823 47.4622 386.098C71.4895 366.054 114.152 331.703 115.017 331.703C115.415 331.703 115.741 334.324 115.741 337.529ZM115.727 366.926L115.712 378.965L90.3081 398.082C76.336 408.597 57.0785 423.264 47.5122 430.678L30.1205 444.156L30.2543 432.961L30.3863 421.768L60.5372 397.691C91.8564 372.68 114.526 354.973 115.295 354.918C115.539 354.902 115.734 360.306 115.727 366.926ZM569.173 364.162C563.541 369.792 568.693 378.073 577.826 378.073C581.546 378.073 581.664 378.574 580.499 389.446C578.104 411.807 586.131 436.972 599.234 448.186C620.368 466.274 646.04 459.103 658.689 431.577C661.591 425.262 662.385 419.895 662.42 406.392L662.463 389.232L668.895 390.095C672.433 390.57 677.049 390.036 679.152 388.911C683.547 386.559 684.264 379.578 680.438 376.404C679.041 375.244 668.148 373.557 656.229 372.653C630.552 370.704 609.466 368.173 589.57 364.654C571.834 361.517 571.818 361.517 569.173 364.162ZM389.548 371.071C374.832 375.052 335.755 380.887 312.359 382.599C298.589 383.605 295.512 384.385 293.978 387.251C291.536 391.813 293.421 397.229 297.952 398.668C299.96 399.305 305.137 399.296 309.455 398.649L317.306 397.472V408.986C317.306 456.231 357.037 481.291 385.18 451.796C398.918 437.394 405.143 413.241 400.616 391.895C399.459 386.439 399.705 385.207 401.954 385.207C405.416 385.207 411.845 378.915 411.845 375.524C411.845 372.368 406.972 367.317 404.137 367.533C402.98 367.622 396.415 369.214 389.548 371.071ZM115.679 408.838L115.616 425.335L97.4039 438.711C87.3863 446.067 68.9334 460.314 56.3953 470.367C43.8555 480.421 33.2172 488.648 32.7516 488.648C32.286 488.648 31.9525 480.824 32.0113 471.259L32.1183 453.87L56.126 435.144C102.564 398.92 111.301 392.408 113.511 392.374C115.142 392.349 115.725 396.778 115.679 408.838ZM115.741 449.345V461.766L98.3493 474.968C78.7868 489.823 73.8351 494.701 75.5368 497.453C77.7772 501.077 81.359 499.274 98.0568 486.119L114.849 472.887L116.019 478.375C116.663 481.393 117.466 490.824 117.803 499.334L118.417 514.808L95.2277 533.286C82.4739 543.45 64.8254 557.761 56.0082 565.089L39.9776 578.411L38.836 571.427C38.2081 567.587 37.1539 557.989 36.4921 550.099L35.2899 535.753L42.9618 530.14C47.1822 527.055 54.2316 521.376 58.6286 517.526C65.6245 511.396 66.3219 510.156 64.2082 507.609C62.8793 506.01 61.281 504.699 60.6585 504.699C60.036 504.699 54.3315 509.229 47.9813 514.767C36.7347 524.572 36.4047 524.722 35.2399 520.563C34.5817 518.214 33.9646 512.569 33.8664 508.022L33.6881 499.752L53.7554 483.611C83.5655 459.636 112.885 437.109 114.403 437.013C115.14 436.965 115.741 442.517 115.741 449.345ZM301.86 441.482C300.148 445.944 306.746 458.238 315.891 467.624C338.402 490.733 372.315 492.382 393.308 471.393C400.27 464.432 400.88 461.052 395.673 458.266C392.539 456.588 390.599 457.366 382.705 463.454C359.647 481.241 332.696 475.457 314.942 448.912C308.114 438.702 303.856 436.283 301.86 441.482ZM584.003 451.848C581.034 454.018 580.924 454.896 582.991 459.882C585.519 465.985 598.414 476.335 608.997 480.756C619.305 485.063 638.775 484.383 648.755 479.368C659.049 474.194 661.726 470.203 657.642 466.119C654.861 463.339 654.074 463.396 645.746 466.977C628.791 474.271 612.698 471.223 598.198 457.972C593.045 453.264 588.492 449.411 588.082 449.411C587.672 449.411 585.836 450.508 584.003 451.848ZM292.779 461.416C284.527 464.293 301.404 486.757 317.859 494.797C329.526 500.497 347.635 502.748 350.833 498.895C355.537 493.228 349.733 488.726 337.65 488.673C328.667 488.632 310.028 478.097 303.928 469.609C298.177 461.609 296.263 460.201 292.779 461.416ZM522.95 510.484C516.291 516.609 509.047 523.463 506.852 525.713L502.859 529.805L489.906 521.082C466.956 505.626 460.613 503.666 451.935 509.35C446.55 512.878 419.051 544.297 413.862 552.852C409.33 560.322 409.173 562.41 412.864 566.102C418.35 571.586 422.036 569.134 440.676 547.607C450.817 535.895 460.194 526.265 461.512 526.206C462.832 526.149 470.556 530.896 478.677 536.758C503.459 554.647 504.889 554.561 526.054 533.969L539.849 520.547L552.994 535.251C580.389 565.895 578.505 564.194 583.657 562.902C589.95 561.322 591.76 554.203 587.758 546.773C583.154 538.224 553.224 505.029 547.412 502.024C538.956 497.652 535.659 498.792 522.95 510.484ZM121.092 534.916C121.092 542.822 120.539 544.06 115.741 546.894C112.798 548.633 110.39 550.684 110.39 551.454C110.39 552.223 107.942 552.852 104.949 552.852C90.8486 552.852 87.1616 558.519 78.6423 593.278L73.7602 613.196L60.168 624.043C52.6922 630.011 46.1922 634.892 45.7231 634.892C45.2539 634.892 43.8733 624.764 42.655 612.385L40.4414 589.875L44.6457 585.775C51.1564 579.426 118.247 526.138 119.754 526.118C120.491 526.108 121.092 530.069 121.092 534.916ZM121.092 557.416C121.092 558.945 120.277 559.692 119.28 559.077C118.283 558.46 117.928 557.209 118.493 556.296C120.022 553.823 121.092 554.283 121.092 557.416ZM124.676 595.21C124.683 599.868 125.132 607.694 125.673 612.599C126.634 621.329 126.501 621.641 119.307 627.503C115.266 630.795 111.515 633.044 110.971 632.5C109.808 631.339 116.265 598.784 119.075 591.643C122.032 584.126 124.658 585.798 124.676 595.21ZM71.6108 646.88L70.6458 666.894L60.3838 675.819L50.1218 684.743L49.221 678.098C48.4665 672.525 49.0837 670.786 53.0454 667.314C62.9417 658.641 69.3632 652.175 69.3632 650.884C69.3632 650.146 68.0932 649.054 66.5413 648.459C64.7986 647.79 60.737 649.819 55.9119 653.773L48.1044 660.171L46.9806 655.698C46.3634 653.238 46.1298 650.053 46.4616 648.621C47.0217 646.208 71.1274 625.325 72.1263 626.388C72.3725 626.65 72.1406 635.873 71.6108 646.88ZM128.527 652.281C128.998 666.755 128.573 671.817 126.799 672.939C125.503 673.757 121.8 676.748 118.566 679.587C115.333 682.425 112.17 684.231 111.538 683.6C109.312 681.374 110.429 675.532 113.932 671.078C117.828 666.127 117.259 663.427 112.323 663.427C109.707 663.427 109.116 661.935 109.116 655.323C109.116 647.897 109.805 646.627 117.334 640.174C121.854 636.301 126.081 633.126 126.727 633.119C127.373 633.114 128.183 641.735 128.527 652.281ZM74.1901 692.409C75.3246 699.519 76.7569 706.641 77.3723 708.233C78.8118 711.961 58.5091 728.716 56.645 725.34C55.9868 724.149 54.3975 716.881 53.1114 709.189L50.7747 695.205L59.6239 687.41C64.49 683.124 69.2937 679.586 70.2997 679.546C71.304 679.509 73.0556 685.298 74.1901 692.409ZM134.167 701.626C135.12 704.108 125.075 713.364 121.428 713.364C119.647 713.364 116.604 706.73 114.765 698.843C113.815 694.765 114.826 693.247 122.286 687.545L130.903 680.959L132.045 690.012C132.672 694.991 133.627 700.218 134.167 701.626ZM139.105 720.052C142.164 728.08 142.711 733.708 140.71 736.549C139.137 738.782 137.644 737.921 131.665 731.327L124.505 723.432L129.487 719.353C135.922 714.088 136.855 714.156 139.105 720.052ZM85.3314 730.095L89.2272 739.692L80.6651 747.78C75.956 752.228 71.4716 755.477 70.6993 754.999C69.9269 754.521 67.3102 750.214 64.8842 745.428L60.473 736.722L70.4317 728.611C75.9114 724.149 80.6277 720.498 80.9149 720.498C81.2003 720.498 83.1874 724.816 85.3314 730.095ZM149.186 746.507C147.487 748.206 144.078 745.454 145.346 743.405C146.099 742.187 147.096 742.217 148.377 743.498C149.427 744.548 149.791 745.902 149.186 746.507ZM106.769 763.385C106.799 763.922 103.681 767.427 99.8441 771.175L92.8642 777.988L85.6828 772.219C81.7336 769.044 78.0894 765.374 77.5863 764.059C77.0655 762.702 80.2745 758.499 85.0175 754.323L93.3673 746.974L100.042 754.693C103.713 758.937 106.74 762.848 106.769 763.385ZM119.43 773.742L123.515 777.048L117.425 782.488C111.606 787.687 111.109 787.812 106.2 785.274L101.064 782.618L106.968 776.526C113.839 769.438 114.055 769.39 119.43 773.742ZM141.168 787.175C150.112 790.728 151.841 794.096 146.256 797.086C143.181 798.73 127.692 795.628 122.134 792.252C120.523 791.275 130.052 782.525 131.804 783.374C132.298 783.615 136.513 785.325 141.168 787.175ZM180.598 798.862C183.665 799.994 183.59 800.299 179.61 802.909C176.034 805.25 173.656 805.414 165.59 803.87C153.928 801.635 153.855 801.587 156.833 797.999C158.705 795.744 161.063 795.415 168.237 796.397C173.21 797.08 178.774 798.19 180.598 798.862ZM201.361 800.308C201.361 802.809 189.087 811.459 188.012 809.716C186.108 806.64 192.601 798.971 197.107 798.971C199.447 798.971 201.361 799.572 201.361 800.308ZM214.75 806.121C216.802 809.44 213.789 814.087 205.764 819.982C194.763 828.063 192.443 828.758 192.443 823.973C192.443 821.589 195.751 817.016 200.915 812.261C209.533 804.33 212.758 802.898 214.75 806.121ZM210.962 828.305C209.133 833.069 190.659 845.457 190.659 841.918C190.659 840.106 208.364 825.805 210.671 825.751C211.375 825.735 211.506 826.884 210.962 828.305ZM203.325 850.245C202.373 851.961 198.352 855.184 194.39 857.404C187.348 861.353 187.218 861.362 188.538 857.791C189.938 854.009 198.746 847.483 202.762 847.254C204.421 847.16 204.576 847.987 203.325 850.245ZM196.098 872.719C194.97 876.138 192.081 880.222 189.676 881.797C185.402 884.598 185.308 884.552 185.334 879.714C185.366 873.889 186.487 872.018 192.336 868.018C197.921 864.197 198.622 865.075 196.098 872.719ZM187.878 897.507C186.522 901.9 181.94 911.329 181.16 911.329C179.926 911.329 182.364 897.702 183.954 895.724C186.861 892.105 189.214 893.173 187.878 897.507Z" fill="black"/>
</svg>
