<svg width="982" height="1362" viewBox="0 0 982 1362" fill="none" xmlns="http://www.w3.org/2000/svg">
<path fill-rule="evenodd" clip-rule="evenodd" d="M251.509 3.45884C219.352 9.28729 209.925 12.4379 207.964 18.0077C206.619 21.8326 206.949 23.6006 209.543 26.4658C213.617 30.9687 215.395 30.9615 239.442 26.3605C250.155 24.3107 259.285 22.9976 259.731 23.4436C260.177 23.8878 255.498 30.8081 249.337 38.8184C228.042 66.4995 222.777 74.8167 223.959 78.9004C225.85 85.4371 231.956 89.3459 238.961 88.5074C308.145 80.2241 304.353 80.936 307.879 75.5517C310.562 71.4574 310.562 70.783 307.879 66.6886C303.796 60.457 299.685 59.92 276.915 62.6549C265.885 63.9805 256.861 64.5835 256.861 63.9965C256.861 63.4078 261.793 56.5411 267.818 48.7377C282.754 29.3987 292.536 14.1416 292.536 10.1864C292.536 8.37564 290.93 5.28926 288.968 3.32682C284.498 -1.14398 276.749 -1.11721 251.509 3.45884ZM131.998 113.182C88.8809 118.292 82.0527 120.488 82.0527 129.251C82.0527 134.726 86.6245 138.935 92.4359 138.812C95.0652 138.755 109.053 137.292 123.525 135.56C137.997 133.827 149.835 132.691 149.835 133.033C149.835 133.378 139.691 146.282 127.294 161.708C102.948 192.005 98.9769 198.722 101.499 205.356C105.049 214.692 106.363 214.84 140.57 209.733C157.93 207.14 180.12 204.174 189.882 203.139C208.644 201.151 214.074 198.582 214.024 191.712C213.951 181.859 207.864 180.103 183.056 182.781C172.088 183.966 156.849 185.884 149.188 187.045C141.528 188.207 134.92 188.817 134.504 188.399C133.471 187.366 143.514 174.318 165.377 148.287C184.8 125.16 187.257 119.469 180.464 113.322C176.463 109.698 161.751 109.657 131.998 113.182ZM26.7563 256.51C3.14119 262.663 0 264.322 0 270.638C0 280.231 6.81394 282.033 24.8887 277.221C30.24 275.797 34.9152 274.93 35.2791 275.294C35.6447 275.658 31.4351 283.055 25.9269 291.731C14.5822 309.599 13.0018 314.006 15.7666 320.075C18.6795 326.468 24.5998 326.996 47.7047 322.923C59.2385 320.891 72.1707 318.712 76.4446 318.084C84.4786 316.902 90.9714 312.172 90.9714 307.505C90.9714 303.402 84.3394 297.693 79.5733 297.693C77.2294 297.693 68.7334 298.942 60.6922 300.467C52.651 301.992 45.3644 302.995 44.5011 302.697C43.6377 302.397 48.1221 294.232 54.4651 284.548C66.4448 266.263 68.4301 259.345 63.1966 254.111C59.201 250.116 48.6358 250.812 26.7563 256.51ZM390.642 300.339C275.069 308.484 226.514 315.166 182.276 329.015C137.954 342.89 110.866 357.865 87.4039 381.459C57.6384 411.393 42.1822 451.177 35.7375 514.453C30.5147 565.71 31.6652 674.446 38.4435 770.462C41.1262 808.47 47.5388 876.643 49.212 884.964C49.7774 887.775 47.9527 896.963 44.7794 907.264C28.5704 959.895 24.1699 992.325 25.4702 1049.58C25.984 1072.2 27.3824 1095.78 28.5793 1101.99L30.7537 1113.28L25.3882 1118.93C5.82931 1139.56 3.44442 1180.01 20.0654 1209.18C31.8311 1229.83 49.4474 1241.4 69.1775 1241.43C82.3149 1241.45 91.3496 1238.12 99.6013 1230.21C109.819 1220.41 113.119 1212.1 113.197 1195.96C113.236 1188.11 112.576 1178.95 111.731 1175.62C110.331 1170.1 110.491 1169.69 113.515 1171.04C115.341 1171.86 120.862 1172.84 125.781 1173.23C132.932 1173.8 135.704 1173.17 139.606 1170.1C146.302 1164.83 146.489 1152.46 140.019 1142.93C130.822 1129.4 99.851 1111.37 78.2515 1106.99L66.8908 1104.68L64.6593 1090.55C62.0461 1074.02 61.0383 1013.38 63.1199 998.029L64.5576 987.426L70.9755 999.813C75.4224 1008.39 82.149 1016.95 92.864 1027.67C106.51 1041.31 110.727 1044.3 128.637 1053.02C142.183 1059.62 156.367 1064.82 171.24 1068.65C183.504 1071.81 193.819 1074.59 194.162 1074.84C194.863 1075.35 187.217 1131.08 181.961 1163.76C178.14 1187.53 178.882 1191.83 187.672 1196.75C191.5 1198.9 193.598 1199.05 197.734 1197.49C207.458 1193.82 292.134 1135.9 335.346 1103.35L354.075 1089.25L355.286 1100.68C358.971 1135.47 361.861 1267.19 359.227 1280.35C358.251 1285.24 357.691 1285.64 353.897 1284.2C338.876 1278.48 308.409 1281.63 293.363 1290.45C269.379 1304.51 263.73 1333.85 282.036 1349.29C290.491 1356.42 297.635 1359.04 314.338 1361.13C340.47 1364.41 372.485 1358.1 385.562 1347.1C396.637 1337.78 396.75 1336.93 397.47 1258.4C398.054 1194.97 395.761 1107.05 393.077 1089.77L392.103 1083.5L458.708 1084.14C495.343 1084.49 542.563 1083.96 563.643 1082.96C584.723 1081.96 602.156 1081.32 602.383 1081.55C602.609 1081.77 603.635 1093.96 604.662 1108.63C607.632 1151.05 608.756 1237.29 606.86 1277.43C604.742 1322.25 605.484 1327.58 615.019 1336.06C625.141 1345.05 638.876 1348.93 664.054 1349.9C709.795 1351.67 733.956 1338.9 733.956 1312.96C733.956 1282.03 696.203 1261.22 656.867 1270.46L645.719 1273.08L645.694 1220.25C645.674 1175.79 644.554 1138.01 641.752 1087.13L641.259 1078.21L658.205 1076.89C744.963 1070.14 825.625 1058.32 881.217 1044.22C898.409 1039.85 913.259 1036.28 914.217 1036.28C915.273 1036.28 915.74 1043.53 915.403 1054.72L914.848 1073.17L905.273 1076.18C892.31 1080.27 876.563 1091.11 863.863 1104.69C846.181 1123.6 842.558 1137.09 852.497 1147.03C858.815 1153.35 863.685 1153.57 874.63 1148.03L882.958 1143.81V1153.71C882.958 1170.88 887.771 1183.89 898.02 1194.41C908.435 1205.1 917.722 1208.5 932.418 1206.99C952.196 1204.96 970.974 1188.35 978.658 1166.07C983.373 1152.4 983.046 1124.46 978.012 1110.83C973.537 1098.72 964.504 1085.61 957.64 1081.26L952.701 1078.14L951.879 1042.49C950.056 963.459 928.315 889.211 888.325 825.438L877.491 808.161L875.807 737.693C870.606 520.191 850.993 407.366 809.624 356.982C785.394 327.47 753.101 313.207 697.608 307.509C618.033 299.338 457.92 295.597 390.642 300.339ZM544.937 328.021C709.483 333.399 744.12 338.719 775.362 363.419C805.024 386.87 823.118 443.056 834.629 547.458C842.627 620.008 844.932 660.698 847.26 770.462C849.912 895.62 854.921 923.153 885.783 982.204C893.059 996.125 899.012 1008.2 899.012 1009.04C899.012 1011.93 839.392 1025.11 800.014 1030.94C745.349 1039.02 703.746 1043.62 635.908 1049.08C592.026 1052.61 573.405 1053.1 482.505 1053.16C425.604 1053.2 373.675 1052.61 367.109 1051.85L355.17 1050.48L341.245 1061.77C311.898 1085.56 241.768 1136.33 234.26 1139.23C233.085 1139.68 234.954 1131.59 238.54 1120.72C249.28 1088.13 262.212 1044.9 262.212 1041.57C262.212 1039.37 257.251 1036 245.712 1030.35C211.196 1013.48 188.434 983.812 179.595 944.187C176.003 928.084 173.422 904.731 171.24 868.584C170.263 852.394 167.339 812.253 164.742 779.383C160.554 726.363 160.022 710.253 160.042 636.66C160.09 441.133 172.143 385.953 221.296 356.227C243.957 342.522 264.754 338.438 342.481 332.435C416.621 326.708 469.484 325.556 544.937 328.021ZM192.157 364.327C186.049 370.558 179.155 376.656 176.838 377.876C174.522 379.098 152.556 393.669 128.024 410.257C103.493 426.845 83.098 440.416 82.7002 440.416C82.3042 440.416 83.5813 437.276 85.5399 433.437C89.1181 426.422 94.4498 422.363 140.428 391.646C150.602 384.848 156.903 379.459 156.928 377.528C156.951 375.812 155.902 374.406 154.596 374.406C152.349 374.406 113.525 400.027 106.319 406.267C103.113 409.043 103.039 409.002 104.888 405.474C109.612 396.457 130.87 380.736 150.784 371.534C162.405 366.164 198.509 353.11 201.967 353.028C202.679 353.012 198.264 358.097 192.157 364.327ZM649.19 361.142C645.173 365.982 651.479 369.054 665.433 369.054C671.976 369.054 681.037 369.563 685.57 370.184C692.36 371.115 694.016 370.778 694.981 368.262C697.164 362.571 691.929 360.596 671.421 359.374C654.27 358.352 651.311 358.587 649.19 361.142ZM724.882 373.429C723.371 377.37 725.19 379.132 735.775 383.98C747.751 389.462 761.572 402.13 767.225 412.806C771.63 421.123 777.126 424.632 779.566 420.684C784.627 412.496 761.106 385.797 738.991 374.631C730.185 370.184 726.255 369.85 724.882 373.429ZM173.024 391.207C173.024 391.615 171.54 395.429 169.728 399.681C167.914 403.932 165.447 411.541 164.243 416.588C162.075 425.683 161.842 425.919 137.663 443.345C124.246 453.013 103.34 468.391 91.2069 477.518C79.0738 486.644 68.8547 493.821 68.4997 493.466C68.1447 493.111 68.4409 489.53 69.1561 485.511C70.23 479.483 71.9334 477.154 78.8651 472.243C83.4904 468.966 100.347 457.111 116.324 445.896C132.303 434.684 147.158 423.929 149.334 421.999C153.49 418.313 153.237 415.439 148.758 415.439C144.955 415.439 115.275 435.743 79.0649 463.116L73.3997 467.397L75.4474 460.727C76.8263 456.235 79.8408 452.42 84.6784 449.05C109.79 431.556 170.575 390.727 171.686 390.607C172.423 390.527 173.024 390.798 173.024 391.207ZM158.094 442.646C157.504 444.854 157.008 447.989 156.995 449.614C156.981 451.309 149.175 458.124 138.687 465.601C128.632 472.769 108.087 487.755 93.0335 498.904C77.9804 510.052 65.3639 518.872 64.9946 518.503C64.6272 518.135 64.8091 515.067 65.3995 511.683C66.377 506.088 70.5082 502.53 111.276 472.202C135.917 453.869 156.774 438.817 157.625 438.751C158.474 438.685 158.686 440.437 158.094 442.646ZM783.972 449.316C782.338 451.958 786.733 473.028 789.543 476.032C791.687 478.325 792.322 478.31 794.718 475.913C797.136 473.495 797.158 471.936 794.908 462.288C793.51 456.297 791.833 450.531 791.18 449.473C789.693 447.067 785.419 446.974 783.972 449.316ZM153.676 474.312L153.059 483.236L126.919 501.981C87.5502 530.217 88.3368 529.532 91.5993 532.793C94.0787 535.273 95.6377 534.604 107.377 526.023C136.313 504.869 150.122 495.414 150.918 496.21C151.38 496.672 151.057 506.816 150.201 518.756C148.872 537.278 148.128 540.823 145.132 542.925C141.024 545.801 80.92 595.944 70.4583 605.221C66.534 608.702 62.7203 611.58 61.9854 611.615C61.2505 611.653 60.6476 605.694 60.6476 598.373C60.6476 586.871 61.1935 584.552 64.6611 581.306C69.6948 576.595 126.732 533.715 136.769 527.095C145.126 521.584 147.561 517.515 143.446 515.934C140.185 514.683 125.369 524.483 89.7192 551.472C75.7846 562.021 63.9458 570.65 63.4089 570.65C62.8702 570.65 62.4314 567.908 62.4314 564.556C62.4314 559.502 63.7246 557.456 70.0123 552.56C80.9539 544.041 82.4058 541.524 77.4648 539.628C75.8363 539.002 71.9887 540.591 68.2821 543.419L61.9016 548.286L63.2252 539.398C63.9529 534.509 64.6735 530.413 64.8287 530.297C67.5882 528.192 143.353 472.129 147.16 469.376C150.103 467.248 152.912 465.48 153.403 465.448C153.893 465.415 154.016 469.405 153.676 474.312ZM147.984 556.824C147.923 562.08 146.143 563.958 128.971 576.894C118.55 584.744 99.7279 599.796 87.1417 610.345C74.5573 620.894 63.8477 629.524 63.3446 629.524C62.8434 629.524 62.4314 627.934 62.4314 625.993C62.4314 624.05 65.8419 619.321 70.0123 615.481C79.7534 606.511 146.336 551.256 147.606 551.087C147.85 551.053 148.021 553.634 147.984 556.824ZM148.052 578.243C148.052 583.665 145.649 585.961 112.082 612.586C92.2985 628.28 73.034 643.823 69.2721 647.125L62.4314 653.132V647.669C62.4314 642.977 64.8787 640.096 79.823 627.199C98.7272 610.884 146.109 572.434 147.31 572.434C147.718 572.434 148.052 575.048 148.052 578.243ZM148.052 608.615V619.82L126.201 636.144C114.182 645.121 95.52 659.329 84.7283 667.714C73.9366 676.099 64.5041 682.98 63.7692 683.004C63.0343 683.025 62.4974 678.429 62.5758 672.786L62.7221 662.528L92.8729 638.444C133.466 606.017 144.719 597.411 146.526 597.411C147.365 597.411 148.052 602.453 148.052 608.615ZM752.134 615.717C750.443 616.953 747.849 623.174 746.369 629.543C744.89 635.91 741.738 644.065 739.364 647.665C720.674 676.007 676.019 675.557 659.238 646.857C656.817 642.72 653.949 635.354 652.863 630.489C650.412 619.513 648.423 617.035 642.06 617.035C633.604 617.035 630.873 621.499 631.964 633.536C635.917 677.143 687.164 704.514 728.572 685.134C748.294 675.903 760.816 661.208 766.033 641.173C769.709 627.058 769.518 621.324 765.23 617.035C761.137 612.941 756.56 612.481 752.134 615.717ZM433.063 630.862C431.563 632.578 429.767 637.15 429.073 641.022C426.133 657.385 415.536 671.052 400.453 677.93C392.376 681.612 372.532 682.41 364.448 679.377C350.57 674.171 338.205 660.983 333.594 646.472C329.479 633.516 321.586 629.197 315.109 636.355C310.73 641.193 311.515 650.461 317.346 662.787C332.902 695.676 367.728 711.488 401.475 700.981C424.219 693.902 440.741 677.379 447.818 654.63C452.016 641.145 452.144 636.89 448.512 631.705C445.127 626.871 436.938 626.423 433.063 630.862ZM147.673 649.558L147.16 666.023L128.43 680.18C118.129 687.965 99.8171 702.314 87.7357 712.066C75.6561 721.819 65.4655 729.49 65.0909 729.117C64.7181 728.743 64.2615 720.984 64.076 711.873C63.7799 697.188 64.1402 695.028 67.2618 692.843C69.1971 691.487 82.7483 680.845 97.3751 669.195C132.699 641.061 143.136 633.316 145.89 633.193C147.638 633.117 148.064 637.013 147.673 649.558ZM148.052 690.1V702.508L133.336 713.561C113.875 728.177 107.102 734.687 108.247 737.674C109.913 742.018 113.242 740.398 130.367 726.898L147.16 713.661L148.312 720.208C148.947 723.808 149.75 733.294 150.096 741.288L150.727 755.824L111.485 787.04L72.242 818.255L71.1236 811.754C70.5082 808.177 69.504 798.829 68.8886 790.979L67.7719 776.707L75.3582 770.973C79.5304 767.819 86.5424 762.104 90.9393 758.274C97.937 752.18 98.6326 750.947 96.5189 748.397C95.19 746.797 93.499 745.486 92.7623 745.486C92.0238 745.486 86.3034 750.053 80.0477 755.637L68.6745 765.786L67.5472 760.543C66.9282 757.658 66.3253 751.983 66.2094 747.934L65.9989 740.569L99.4443 713.996C140.904 681.055 145.046 677.88 146.714 677.776C147.45 677.73 148.052 683.277 148.052 690.1ZM591.487 757.687C576.7 771.089 565.964 774.798 545.226 773.668C528.56 772.762 518.569 768.976 506.863 759.137C498.115 751.782 494.257 751.09 489.756 756.062C485.818 760.415 487.168 764.909 494.622 772.27C517.174 794.54 565.116 798.504 593.694 780.462C601.032 775.829 613.497 762.727 613.822 759.307C614.451 752.695 610.6 747.27 605.279 747.27C604.015 747.27 597.809 751.958 591.487 757.687ZM153.075 776.294C152.987 782.656 151.978 784.697 146.637 789.314C142.829 792.606 140.824 795.63 141.607 796.898C143.196 799.467 149.207 799.681 150.727 797.223C153.364 792.956 155.187 796.136 155.187 805.003V814.567L134.793 830.872C123.577 839.838 113.96 847.176 113.424 847.176C112.887 847.176 116.445 841.051 121.331 833.567C126.217 826.082 130.214 818.416 130.214 816.53C130.214 810.685 125.057 802.768 119.315 799.797C116.297 798.236 114.151 796.638 114.546 796.244C120.361 790.428 150.797 767.278 151.806 767.902C152.561 768.368 153.132 772.145 153.075 776.294ZM78.5761 830.37C73.5388 838.316 73.1339 838.591 73.1339 834.06C73.1339 830.932 74.9052 827.639 78.0392 824.942C80.7363 822.619 83.1871 820.96 83.4814 821.254C83.7775 821.546 81.5693 825.65 78.5761 830.37ZM157.596 844.537L158.718 862.415L148.48 870.395C134.17 881.547 94.8243 914.325 87.8499 920.905L82.0527 926.373L82.1347 918.441C82.2096 911.353 82.9624 909.94 89.2198 905.157C98.2831 898.232 102.628 892.018 100.147 889.536C98.8592 888.248 96.8935 888.592 93.738 890.66C91.2354 892.301 89.1877 893.275 89.1877 892.828C89.1877 892.38 91.2551 887.344 93.7809 881.636C97.5071 873.218 100.787 869.352 111.172 861.14C145.822 833.742 155.923 825.917 156.187 826.272C156.346 826.485 156.979 834.704 157.596 844.537ZM160.741 895.079L161.269 911.76L125.767 940.069C106.24 955.64 90.0867 968.2 89.8673 967.98C88.9005 967.013 83.8364 942.895 83.8364 939.259C83.8364 936.221 91.2194 929.067 113.714 910.308C155.258 875.664 157.653 873.867 159.038 876.316C159.685 877.46 160.452 885.904 160.741 895.079ZM135.011 911.478C127.24 918.318 125.462 923.889 131.049 923.889C134.561 923.889 150.36 908.34 149.031 906.19C146.921 902.775 143.376 904.112 135.011 911.478ZM895.229 927.458C895.198 928.929 894.09 927.324 892.769 923.889C889.633 915.744 889.679 912.539 892.833 919.429C894.181 922.373 895.259 925.986 895.229 927.458ZM165.465 946.151C160.081 949.621 137.47 967.775 122.806 980.401C102.122 998.209 103.074 998.038 96.5617 985.109L92.7998 977.641L117.965 957.456C131.805 946.354 147.648 933.757 153.171 929.463L163.213 921.658L164.573 933.753C165.322 940.406 165.723 945.985 165.465 946.151ZM171.89 963.643C173.495 967.846 174.808 972.026 174.808 972.933C174.808 973.839 169.972 979.03 164.063 984.47C156.119 991.781 153.747 995.008 154.962 996.846C156.33 998.915 157.618 998.71 162.616 995.62C165.921 993.577 170.557 989.849 172.919 987.333C178.375 981.526 179.465 981.598 182.763 987.976L185.459 993.19L171.66 1004.8C164.071 1011.19 154.653 1019.19 150.731 1022.6C143.863 1028.55 143.407 1028.68 138.464 1026.13L133.332 1023.47L142.543 1014.14C148.942 1007.66 151.407 1003.91 150.617 1001.85C149.157 998.046 146.196 999.59 134.122 1010.45L124.936 1018.71L116.768 1010.99L108.6 1003.27L121.554 992.571C147.443 971.184 166.642 956.002 167.794 956.002C168.442 956.002 170.284 959.442 171.89 963.643ZM201.441 1015.43C201.619 1016.23 196.138 1022.09 189.262 1028.45L176.757 1040.03L165.875 1036.69C159.889 1034.85 154.835 1032.85 154.643 1032.23C154.452 1031.62 162.322 1024.26 172.132 1015.87L189.97 1000.63L195.544 1007.31C198.61 1010.98 201.264 1014.63 201.441 1015.43ZM800.352 1003.61C793.18 1005.79 791.864 1006.86 792.326 1010.1C792.771 1013.24 793.883 1013.87 798.098 1013.42C805.866 1012.58 813.704 1007.99 813.056 1004.66C812.295 1000.74 810.318 1000.57 800.352 1003.61ZM228.952 1045.48C226.275 1048.27 223.032 1050.56 221.744 1050.56C218.71 1050.56 218.792 1049.58 222.27 1044.27C224.919 1040.23 224.91 1039.8 222.165 1038.75C220.256 1038.01 217.388 1039.33 214.17 1042.41C209.206 1047.17 209.036 1047.2 198.195 1044.96C192.169 1043.71 187.451 1042.08 187.712 1041.33C187.972 1040.58 192.883 1036 198.623 1031.15L209.059 1022.33L221.439 1031.36L233.818 1040.4L228.952 1045.48ZM247.942 1049.28C247.942 1052.1 245.173 1055.43 238.964 1060.07C226.858 1069.11 224.746 1069.78 224.785 1064.57C224.806 1061.72 227.739 1057.93 233.888 1052.79C244.105 1044.24 247.942 1043.29 247.942 1049.28ZM243.218 1069.76C242.475 1072.6 239.007 1075.27 226.983 1082.24C219.391 1086.64 222.957 1081.06 232.334 1073.86C242.812 1065.82 244.405 1065.22 243.218 1069.76ZM235.14 1090.75C234.822 1092.25 231.228 1095.46 227.149 1097.89C220.818 1101.65 219.855 1101.84 220.554 1099.17C221.326 1096.23 231.067 1088.37 234.248 1088.13C235.056 1088.07 235.457 1089.25 235.14 1090.75ZM227.967 1113.52C226.854 1117.15 224.072 1121.34 221.781 1122.84C217.764 1125.47 217.62 1125.39 217.645 1120.62C217.661 1117.9 218.262 1114.82 218.983 1113.79C220.572 1111.5 228.799 1105.75 229.492 1106.44C229.765 1106.71 229.079 1109.9 227.967 1113.52ZM218.235 1142.43C214.775 1152.59 212.379 1154.25 214.002 1145.37C215.386 1137.8 217.058 1134.41 219.398 1134.41C220.261 1134.41 219.739 1138.02 218.235 1142.43Z" fill="black"/>
</svg>
