<svg width="1375" height="1052" viewBox="0 0 1375 1052" fill="none" xmlns="http://www.w3.org/2000/svg">
<path fill-rule="evenodd" clip-rule="evenodd" d="M801.608 0.543327C656.173 9.63209 589.629 20.9783 535.592 45.8997C471.026 75.6769 441.183 121.904 430.632 208.482C422.971 271.352 426.739 432.79 438.454 543.576L439.853 556.794L431.517 566.775C418.645 582.19 397.579 601.404 386.857 607.509C371.444 616.286 358.46 619.291 340.413 618.261C319.37 617.06 303.168 609.192 283.369 590.554L269.266 577.277V567.735C269.266 547.141 263.238 530.372 252.42 520.867C239.339 509.373 212.363 506.643 193.663 514.921C187.895 517.473 181.338 518.763 174.074 518.776C152.645 518.813 120.925 522.497 111.429 526.053C100.598 530.106 96.2769 535.422 96.2769 544.689C96.2769 560.32 103.885 564.291 133.067 563.895L154.695 563.6L154.278 568.917C153.659 576.794 156.745 591.739 160.52 599.142C164.909 607.752 174.83 616.268 183.169 618.586C197.955 622.694 225.405 619.379 240.53 611.659L247.35 608.177L253.404 614.475C283.333 645.613 328.232 661.175 366.411 653.64C388.766 649.231 422.632 630.962 437.773 615.147C440.605 612.19 443.459 609.771 444.115 609.771C444.771 609.771 445.845 616.2 446.499 624.058C449.627 661.596 458.006 691.13 471.067 710.671C491.159 740.732 519.41 758.396 567.167 770.763L588.192 776.208L587.396 781.77C571.454 893.314 571.494 892.757 579.373 896.976C588.061 901.63 592.73 899.492 632.537 872.645C677.693 842.193 696.147 829.048 722.855 808.317C733.488 800.063 742.45 793.571 742.767 793.891C744.609 795.743 747.215 868.535 747.215 918.13V976.021L743.202 974.747C740.996 974.047 731.817 973.057 722.806 972.546C693.947 970.914 672.582 980.707 663.345 999.8C657.92 1011.01 658.923 1026.17 665.678 1035.03C675.278 1047.63 695.873 1053.42 724.922 1051.7C756.617 1049.83 774.913 1041.03 781.122 1024.68C784.882 1014.78 786.831 929.291 784.744 865.855C783.68 833.465 782.326 801.745 781.738 795.365L780.666 783.765L820.564 785.046C842.507 785.751 886.51 785.585 918.349 784.679C950.19 783.77 976.568 783.358 976.969 783.758C979.546 786.338 981.338 841.465 981.52 923.853C981.718 1013.57 981.929 1019.62 985.026 1024.19C993.688 1036.97 1028.98 1045.52 1059.19 1042.17C1079.45 1039.91 1092.83 1034.74 1100.26 1026.26C1116.9 1007.3 1106.71 978.43 1079.11 966.29C1068.16 961.475 1040.4 959.999 1028.81 963.615L1020.61 966.172L1019.33 888.353C1018.62 845.552 1017.5 803.874 1016.83 795.732C1015.4 778.281 1011.59 780.405 1049.5 777.523C1142.76 770.434 1219.13 759.4 1279.23 744.33C1334.26 730.533 1336.88 727.184 1318 694.844C1303.64 670.258 1290.62 642.548 1284.27 623.069C1278.98 606.842 1272.33 572.586 1273.68 568.528C1274.87 564.962 1299.71 595.144 1309.83 612.447C1337.74 660.184 1345.12 707.85 1332.91 761.581L1330.1 773.95L1323.55 773.964C1294.74 774.023 1256.6 789.155 1247.9 803.979C1242.83 812.63 1243.79 820.984 1250.52 826.648C1255.68 830.995 1257.28 831.388 1266.39 830.562L1276.52 829.643L1272.05 839.718C1260.58 865.555 1267.31 890.989 1288.98 903.738C1296.3 908.042 1299.24 908.679 1311.66 908.65C1323.61 908.62 1327.4 907.844 1335 903.861C1352.28 894.8 1367.1 875.649 1372.48 855.415C1377.65 835.971 1374.51 805.64 1366.23 795.106C1362.88 790.844 1362.89 790.578 1366.99 775.212C1388.51 694.567 1365.26 608.853 1304.84 546.08C1295.05 535.908 1283.15 524.727 1278.39 521.235L1269.75 514.885L1269.74 486.038C1269.71 416.899 1264.33 309.609 1258.06 252.859C1242.58 112.822 1217.4 53.5786 1162.06 26.9298C1133.86 13.3511 1109.69 9.18774 1028.1 3.85547C988.258 1.2518 827.806 -1.0949 801.608 0.543327ZM960.33 29.7887C1113.18 35.6652 1144.68 41.8112 1174.52 71.5777C1184.2 81.2304 1188.92 87.8029 1194.51 99.3865C1212.25 136.182 1225.17 205.298 1233.11 305.883C1235.64 337.909 1236.65 362.895 1241.22 508.051C1242.19 538.968 1244.2 572.696 1245.68 583.002C1251.32 622.375 1261.44 652.209 1281.53 688.777C1287.96 700.462 1292.77 710.464 1292.23 711.007C1289.97 713.268 1239.45 724.279 1204.65 730.094C1139.39 741 1038.73 750.633 949.63 754.497C903.533 756.497 801.626 755.78 764.045 753.192L747.884 752.078L733.727 763.564C699.859 791.044 628.191 842.823 626.444 841.073C626.067 840.696 630.182 826.844 635.591 810.291C648.513 770.731 654.493 749.639 654.42 743.859C654.368 739.704 652.479 738.254 638.362 731.528C609.974 718.001 586.847 690.724 576.742 658.846C570.55 639.31 567.743 618.251 564.494 566.941C562.971 542.894 559.937 501.939 557.753 475.929C554.279 434.57 553.788 416.886 553.849 334.948C553.954 194.107 560.264 133.914 578.891 96.0048C591.389 70.5712 615.465 52.4526 647.739 44.1919C667.715 39.0809 742.107 32.2674 811.417 29.2033C841.424 27.8774 918.501 28.1808 960.33 29.7887ZM586.649 64.6893C581.288 70.1429 571.283 78.4322 564.417 83.1095C539.011 100.414 480.521 139.83 478.237 141.188C476.744 142.073 477.184 140.024 479.431 135.615C482.743 129.121 500.064 115.922 543.896 86.4913C550.764 81.88 553.18 76.1872 548.27 76.1872C546.603 76.1872 535.109 83.263 522.727 91.911C494.159 111.868 494.473 111.693 499.528 104.822C508.032 93.269 532.363 77.6809 558.653 66.945C566.372 63.7935 592.613 55.208 595.566 54.8689C596.022 54.8154 592.01 59.2357 586.649 64.6893ZM1041.8 64.1415C1042.33 67.9212 1043.62 68.2709 1063.77 70.1179C1075.54 71.1958 1085.85 71.4831 1086.67 70.7532C1087.5 70.0251 1087.89 67.9372 1087.54 66.1152C1086.83 62.3587 1076.81 60.608 1054.28 60.3029C1041.72 60.1333 1041.25 60.2779 1041.8 64.1415ZM1117.48 74.0618C1115.36 77.4971 1118.42 81.1572 1125.85 84.0536C1138.48 88.9754 1149.95 98.794 1158.46 111.96C1166.81 124.874 1168.16 125.921 1171.39 122.027C1176.2 116.217 1156.55 90.6279 1139.29 80.2436C1128.82 73.9458 1119.23 71.2279 1117.48 74.0618ZM564.53 97.3842C563.069 100.209 560.26 108.356 558.284 115.485C556.31 122.614 554.475 128.589 554.205 128.76C550.974 130.822 502.141 166.589 485.252 179.265C473.099 188.384 462.841 195.531 462.455 195.146C462.07 194.761 462.272 191.209 462.903 187.255C464.005 180.354 465.246 179.206 493.725 158.75C510.047 147.027 528.416 134.064 534.545 129.943C545.428 122.63 548.837 117.23 542.571 117.234C539.097 117.236 517.664 131.516 487.286 154.069C476.252 162.26 467.283 168.365 467.358 167.635C467.433 166.905 468.442 163.69 469.601 160.492C471.362 155.634 479.346 149.547 518.063 123.542C543.559 106.418 565.04 92.3714 565.801 92.3286C566.561 92.284 565.99 94.5593 564.53 97.3842ZM550.799 148.016C549.824 152.499 547.545 156.694 545.224 158.277C543.063 159.749 522.966 174.406 500.561 190.845C478.156 207.285 459.484 220.737 459.065 220.737C457.783 220.737 458.277 211.05 459.67 208.891C461.195 206.528 549.587 140.521 551.299 140.467C551.93 140.447 551.705 143.845 550.799 148.016ZM1177.01 154.62C1177.01 162.339 1180.58 177.698 1182.68 178.994C1183.67 179.61 1185.69 178.91 1187.16 177.438C1189.44 175.159 1189.52 173.208 1187.69 164.289C1185.38 153.037 1183.36 149.354 1179.47 149.354C1177.94 149.354 1177.01 151.337 1177.01 154.62ZM546.712 178.466C545.62 185.638 544.668 186.584 523.012 201.999C483.574 230.07 479.613 233.719 485.944 236.152C487.573 236.776 496.103 231.651 507.791 223.026C536.204 202.058 542.674 197.537 544.272 197.537C545.613 197.537 545.089 210.222 542.819 232.741L541.879 242.069L517.48 262.051C504.06 273.04 484.455 289.592 473.91 298.829L454.739 315.625V300.483V285.341L480.152 265.947C494.128 255.28 512.672 241.393 521.359 235.084C537.399 223.437 540.381 220.062 537.329 217.009C535.524 215.203 511.506 231.613 475.811 259.04C464.89 267.433 455.81 274.093 455.632 273.84C455.456 273.588 455.657 270.169 456.078 266.243C456.715 260.313 458.175 258.087 464.708 253.096C469.034 249.791 472.573 246.026 472.573 244.725C472.573 240.11 468.767 240.126 462.687 244.766L456.522 249.472V241.377V233.282L477.477 217.719C529.199 179.306 546.573 167.166 547.186 169.011C547.55 170.1 547.336 174.354 546.712 178.466ZM2.11386 194.325C0.487406 195.953 -0.0190725 227.784 0.000544835 326.829C0.0165954 398.527 0.639 458.153 1.38624 459.329C2.42061 460.956 39.4955 461.55 157.153 461.82C242.078 462.014 312.479 461.608 313.599 460.915C316.26 459.27 316.203 454.012 313.494 451.302C311.864 449.671 275.765 449.16 161.906 449.16H12.4575V323.475C12.4575 211.598 12.149 197.484 9.65583 194.987C6.29235 191.621 4.9334 191.504 2.11386 194.325ZM265.391 226.129C255.903 230.959 247.624 235.743 246.995 236.762C246.367 237.781 246.358 240.213 246.979 242.167C248.445 246.791 254.838 246.786 263.916 242.151C267.761 240.188 271.356 238.582 271.905 238.582C273.4 238.582 267.723 249.322 240.785 297.473C227.333 321.52 215.557 342.613 214.619 344.348C213.189 346.992 210.917 344.564 200.518 329.277C183.754 304.636 180.567 301.042 175.468 301.042C170.555 301.042 166.978 306.197 138.046 354.946L120.353 384.761L115.003 375.788C101.028 352.351 91.6169 339.381 88.2338 338.896C83.2279 338.178 75.2739 347.019 51.9061 379.277C32.1658 406.529 29.4069 412.6 34.7499 417.038C38.5646 420.206 39.7274 418.973 64.438 385.6C89.2593 352.075 85.1771 352.858 100.6 378.67C119.907 410.987 121.145 411.238 135.866 385.808C152.004 357.933 175.335 320.672 176.651 320.672C177.305 320.672 182.964 328.478 189.224 338.02C202.353 358.032 209.795 367.07 213.139 367.07C214.434 367.07 217.228 364.861 219.351 362.163C223.32 357.116 255.104 301.086 273.767 266.243L284.28 246.613L286.436 256.194C287.622 261.464 289.484 266.666 290.57 267.753C293.565 270.749 298.579 266.825 299.277 260.944C300.053 254.383 294.535 222.359 292.127 219.455C288.928 215.599 283.342 216.993 265.391 226.129ZM542.125 257.957C542.125 262.379 538.986 265.513 518.495 281.554C505.498 291.728 486.585 307.1 476.464 315.716C466.343 324.33 457.314 331.379 456.401 331.379C452.599 331.379 455.186 325.198 461.426 319.366C473.165 308.396 540.158 252.859 541.654 252.859C541.913 252.859 542.125 255.154 542.125 257.957ZM540.013 287.47C536.898 289.39 466.739 345.658 462.557 349.589C457.111 354.712 456.98 354.739 455.991 350.956C455.436 348.832 455.357 346.12 455.814 344.928C456.747 342.495 494.408 310.445 521.616 288.928L539.45 274.825L540.013 280.974C540.324 284.356 540.324 287.279 540.013 287.47ZM540.274 310.411L540.206 323.349L530.019 330.403C524.416 334.283 505.587 348.522 488.177 362.047L456.522 386.636V375.492V364.347L465.885 356.904C471.033 352.808 489.693 337.786 507.349 323.516C525.004 309.249 539.651 297.551 539.896 297.524C540.14 297.496 540.311 303.294 540.274 310.411ZM1037.97 323.574C1029.17 330.983 1024.81 341.175 1024.72 354.579C1024.62 368.552 1027.57 377.817 1034.68 385.917C1043.94 396.48 1056.06 397.249 1066.23 387.919C1082.07 373.397 1080.31 334.875 1063.25 322.726C1055.55 317.238 1045.07 317.59 1037.97 323.574ZM759.174 327.412C751.144 332.368 744.907 347.233 744.907 361.421C744.907 408.237 791.816 412.91 796.595 366.571C799.531 338.114 778.125 315.714 759.174 327.412ZM540.341 350.765V368.364L527.444 377.962C520.351 383.239 502.188 397.431 487.082 409.498C471.977 421.566 459.433 431.209 459.206 430.931C458.98 430.651 458.338 423.018 457.778 413.97L456.761 397.519L480.018 379.172C504.244 360.061 539.123 333.287 539.896 333.208C540.14 333.183 540.341 341.084 540.341 350.765ZM541.946 395.813L542.125 404.03L521.616 419.601C510.336 428.163 501.107 436.224 501.107 437.512C501.107 443.974 507.516 441.419 523.991 428.384L541.233 414.747L542.362 426.154C542.983 432.426 543.585 442.092 543.7 447.631L543.908 457.701L522.563 474.845C506.359 487.862 499.946 491.99 495.93 491.99C486.804 491.99 482.242 494.941 474.165 506.073C469.856 512.011 465.73 516.893 464.993 516.922C464.257 516.95 463.656 513.076 463.656 508.313C463.656 503.548 463.169 494.916 462.573 489.129L461.491 478.605L476.84 466.287C485.283 459.511 492.19 453.754 492.19 453.493C492.19 451.077 489.597 447.376 487.904 447.376C486.736 447.376 480.623 451.746 474.315 457.087C461.273 468.135 460.157 467.759 460.116 452.306L460.089 442.068L473.678 430.892C481.152 424.744 499.001 410.598 513.339 399.453C542.373 376.893 541.54 376.998 541.946 395.813ZM853.624 444.997C850.322 448.302 852.883 455.494 859.661 461.945C868.951 470.789 881.447 477.069 898.368 481.398C931.12 489.78 965.914 481.102 985.203 459.737C991.95 452.265 992.827 449.378 989.399 445.948C985.688 442.234 982.337 443.558 972.94 452.451C947.072 476.933 895.252 476.266 867.968 451.1C860.437 444.153 856.248 442.37 853.624 444.997ZM546.237 477.713C547.234 485.362 546.992 485.935 541.139 489.775C534.743 493.97 533.163 498.537 537.527 500.213C538.922 500.748 541.731 500.295 543.769 499.203C547.693 497.102 547.609 496.842 548.24 513.122C548.342 515.776 509.323 549.367 474.759 576.381C471.599 578.851 470.147 576.831 472.252 572.894C473.216 571.092 482.583 557.572 493.069 542.85C510.348 518.587 512.051 515.496 511.254 509.835C510.771 506.4 509.831 502.24 509.166 500.593C508.242 498.303 512.244 494.177 526.138 483.102C536.138 475.131 544.516 468.849 544.755 469.145C544.994 469.44 545.661 473.296 546.237 477.713ZM550.917 549.29L551.042 564.655L528.304 583.136C515.798 593.301 499.011 607.445 491 614.567L476.435 627.514L475.214 620.276C474.147 613.959 474.525 612.665 478.187 610.101C485.192 605.197 495.757 595.182 495.757 593.445C495.757 589.036 489.702 590.288 482.508 596.188C478.185 599.732 474.181 602.632 473.61 602.632C473.04 602.632 472.578 599.622 472.585 595.94C472.597 589.505 473.541 588.481 497.107 569.27C546.592 528.934 548.254 527.718 549.579 530.959C550.246 532.592 550.847 540.84 550.917 549.29ZM554.414 605.564C554.537 611.395 553.795 615.071 552.379 615.644C551.154 616.14 535.303 628.728 517.157 643.617L484.165 670.688L481.909 662.983C480.667 658.744 479.168 651.188 478.575 646.192L477.498 637.106L499.557 618.37C511.689 608.066 528.437 594.181 536.775 587.515L551.933 575.398L553.077 585.891C553.706 591.664 554.309 600.516 554.414 605.564ZM528.286 613.149C523.166 617.831 521.049 621.031 521.789 622.964C522.395 624.541 523.624 625.832 524.521 625.832C527.223 625.832 542.125 611.287 542.125 608.652C542.125 604.133 535.947 606.141 528.286 613.149ZM558.889 638.5L560.096 646.706L544.424 659.247C535.803 666.147 522.144 677.511 514.07 684.503C505.997 691.494 498.587 697.214 497.604 697.214C496.622 697.214 493.809 693.251 491.355 688.405L486.895 679.597L496.231 671.734C501.365 667.41 516.77 654.875 530.463 643.879C557.754 621.964 556.49 622.204 558.889 638.5ZM568.665 674.907C568.703 675.888 564.678 679.895 559.723 683.808C550.195 691.336 546.61 696.154 548.392 699.04C549.82 701.351 555.443 698.345 563.977 690.711C567.658 687.417 571.34 684.722 572.161 684.722C573.375 684.722 577.793 692.294 577.793 694.376C577.793 696.07 538.376 729.327 536.425 729.279C535.146 729.249 532.507 728.017 530.56 726.545C527.139 723.959 527.339 723.577 536.541 715.111C545.429 706.934 547.257 702.793 542.653 701.256C541.593 700.903 535.847 705.134 529.884 710.659L519.041 720.704L510.709 712.827L502.377 704.95L522.697 688.057C533.873 678.767 547.402 667.712 552.761 663.491L562.507 655.817L565.553 664.471C567.228 669.228 568.63 673.925 568.665 674.907ZM589.979 709.601C593.085 713.469 595.627 716.985 595.627 717.413C595.627 717.842 589.709 723.492 582.476 729.968L569.325 741.746L558.336 738.032C548.748 734.791 547.639 733.962 549.64 731.522C552.675 727.824 581.957 702.664 583.291 702.61C583.862 702.587 586.872 705.733 589.979 709.601ZM1193.59 704.934C1185.81 707.786 1182.84 710.9 1185.44 713.498C1189.9 717.965 1209.72 709.674 1206.62 704.641C1205.05 702.096 1201.09 702.186 1193.59 704.934ZM611.645 730.674C616.474 734.356 622.203 738.628 624.377 740.17L628.327 742.974L621.737 748.003C614.7 753.374 611.272 752.883 614.926 747.028C619.281 740.049 612.829 737.408 607.049 743.803C604.132 747.033 602.35 747.412 594.441 746.484C578.79 744.646 578.684 744.289 590.604 733.646C596.556 728.331 601.751 723.982 602.147 723.982C602.541 723.982 606.816 726.995 611.645 730.674ZM640.957 753.163C640.315 754.839 635.27 759.456 629.746 763.425C619.911 770.488 619.69 770.552 619.067 766.494C618.16 760.553 636.2 744.189 639.748 747.737C641.055 749.046 641.601 751.488 640.957 753.163ZM636.645 770.04C636.645 772.599 632.359 776.939 625.085 781.749C611.937 790.438 612.563 785.591 625.944 775.083C634.125 768.657 636.645 767.47 636.645 770.04ZM629.511 790.818C629.511 792.244 625.9 795.895 621.486 798.934C610.86 806.249 610.277 801.263 620.862 793.591C629.395 787.406 629.511 787.368 629.511 790.818ZM622.026 813.656C619.685 820.622 617.568 823.504 612.984 825.957C609.815 827.655 609.637 827.326 610.743 821.844C611.87 816.249 618.855 807.857 622.385 807.857C623.258 807.857 623.098 810.466 622.026 813.656ZM612.553 841.81C608.221 854.096 606.188 856.202 607.434 847.117C608.319 840.655 611.784 834.625 614.614 834.625C614.873 834.625 613.946 837.859 612.553 841.81Z" fill="black"/>
</svg>
