<svg width="1047" height="990" viewBox="0 0 1047 990" fill="none" xmlns="http://www.w3.org/2000/svg">
<path fill-rule="evenodd" clip-rule="evenodd" d="M773.732 6.69208C772.787 10.3736 770.607 21.6431 768.884 31.7365C766.042 48.4078 766.012 50.3458 768.551 52.8888C771.892 56.2331 778.255 54.7608 779.644 50.3227C780.165 48.6541 782.217 37.7433 784.205 26.0741C788.103 3.17292 787.547 0 779.62 0C776.294 0 775.101 1.35626 773.732 6.69208ZM848.164 49.3608C825.271 66.1517 817.879 73.3702 818.458 78.3687C819.307 85.6622 826.938 85.5212 835.365 78.0547C839.109 74.7372 847.992 67.4276 855.1 61.8116C868.512 51.2167 870.967 46.3145 864.579 42.8918C859.929 40.4023 860.906 40.0169 848.164 49.3608ZM399.994 53.5938C213.886 62.438 216.758 62.0597 174.618 83.3066C120.119 110.783 86.9181 139.038 70.4415 171.96C58.6542 195.514 58.032 201.742 59.198 284.636C60.2464 359.027 61.4214 388.264 66.7882 473.362L69.7997 521.108L59.1784 532.252C22.9928 570.224 3.03229 618.211 0.352466 673.669C-0.922367 700.083 1.18691 720.332 7.89271 746.035L12.3394 763.079L7.97471 771.019C-7.06654 798.376 1.54885 833.055 27.017 847.674C44.1051 857.484 61.5516 853.845 69.1792 838.882C73.6134 830.182 74.0485 813.036 70.1616 800.21C68.7013 795.392 67.4961 791.45 67.4854 791.45C67.4747 791.45 71.4043 791.723 76.2202 792.057C83.2398 792.544 85.7128 791.926 88.7028 788.934C101.011 776.615 82.3875 759.526 51.4117 754.713C44.0623 753.571 37.1622 752.406 36.0781 752.122C33.0987 751.344 26.5552 722.934 24.601 702.285C20.1008 654.76 33.2592 606.815 61.7174 567.037C67.1608 559.426 71.8394 553.424 72.1122 553.697C72.3868 553.97 73.8863 566.621 75.4482 581.809C79.2566 618.873 84.8141 662.957 88.1537 682.592C97.0811 735.085 120.527 764.118 165.252 778.057L180.687 782.868L181.208 797.541C181.504 805.935 180.478 818.843 178.809 827.708C173.63 855.217 173.648 854.195 178.319 857.259C190.884 865.498 239.661 841.615 281.425 806.774L296.581 794.132L317.326 794.128L338.071 794.127L339.15 803.496C343.179 838.457 346.77 919.397 344.809 931.018L343.595 938.215L334.605 935.578C306.314 927.278 276.793 941.299 273.286 964.702C271.134 979.067 279.038 985.604 302.741 989.063C318.797 991.404 341.432 989.218 354.242 984.087C367.966 978.593 367.936 978.764 367.643 906.554C367.483 867.231 366.451 834.194 364.924 819.453C363.569 806.39 362.817 795.349 363.25 794.916C363.683 794.482 383.555 794.127 407.409 794.127C450.023 794.127 549.01 791.434 568.705 789.739L578.731 788.875L579.765 797.301C583.643 828.911 584.998 884.566 582.923 926.983L580.735 971.681L586.052 976.435C592.916 982.574 607.087 985.551 629.999 985.668C664.482 985.843 679.031 979.192 679.031 963.254C679.031 952.32 671.77 938.462 662.996 932.651C649.426 923.662 631.709 922.602 615.289 929.799L607.711 933.122V887.975C607.711 850.463 606.445 820.362 603.693 792.349L603.254 787.895L633.565 785.67C668.156 783.13 689.117 779.857 705.775 774.391C723.11 768.704 746.419 756.068 759.511 745.259C770.104 736.514 772.161 735.547 782.586 734.417C802.524 732.258 836.668 724.806 856.651 718.255C889.95 707.337 891.06 705.108 872.515 686.365C844.943 658.499 835.625 626.8 832.959 551.807L831.799 519.171L839.661 520.578C843.985 521.35 857.151 521.948 868.918 521.907C886.031 521.848 892.992 521.011 903.687 517.73C943.265 505.579 974.633 476.929 992.85 436.291C1004.3 410.756 1014.2 370.959 1014.22 350.435C1014.23 343.919 1014.86 342.809 1019.63 340.83C1027.76 337.457 1040.28 322.451 1043.84 311.797C1051.83 287.89 1044.12 259.844 1026.88 250.148C1018.75 245.576 1007.4 245.098 999.845 249.01C989.191 254.522 978.572 275.169 978.572 290.367V296.343L973.61 292.671C970.88 290.652 965.756 288.529 962.222 287.956C948.716 285.762 943.707 300.117 953.337 313.423C960.027 322.665 972.897 333.879 982.919 339.201L990.985 343.484L990.011 353.32C985.871 395.172 971.133 434.462 949.946 460.128C936.804 476.048 915.025 490.051 895.248 495.292C882.961 498.547 855.953 498.969 842.233 496.119L832.367 494.068L832.357 454.489C832.332 348.275 819.471 194.595 806.379 144.022C798.956 115.359 779.582 90.9017 755.061 79.2467C734.635 69.5388 697.695 62.9305 625.541 56.0761C590.72 52.7693 449.941 51.2185 399.994 53.5938ZM626.433 74.8371C720.086 83.4833 745.037 89.6418 765.709 109.208C782.952 125.527 787.737 138.469 795.72 190.374C807.719 268.395 812.343 341.794 814.582 489.86C816.183 595.636 817.039 608.517 824.396 637.507C828.356 653.113 841.321 679.223 850.022 689.111C854.041 693.68 857.329 697.861 857.329 698.405C857.329 701.921 808.072 712.565 773.561 716.508C748.387 719.382 644.585 726.753 580.075 730.243C525.568 733.193 338.98 733.195 302.732 730.245C256.524 726.485 233.636 718.053 212.586 697.033C202.514 686.975 198.235 680.897 191.736 667.423C171.872 626.231 166.145 576.261 152.871 328.358C148.246 241.975 148.859 182.328 154.652 155.335C163.155 115.703 182.598 94.2013 218.301 84.9501C234.601 80.7261 256.897 78.913 341.155 74.9602C383.323 72.9811 422.237 71.0663 427.63 70.7022C433.024 70.3382 470.734 70.2668 511.43 70.5452C569.613 70.9432 594.187 71.8604 626.433 74.8371ZM577.846 109.95C574.277 111.536 575.227 119.23 579.259 121.391C588.667 126.43 603.208 119.647 596.783 113.216C593.849 110.278 581.787 108.199 577.846 109.95ZM876.05 117.268C862.321 120.659 849.885 124.055 848.414 124.817C846.943 125.577 845.74 128.522 845.74 131.359C845.74 138.612 850.277 138.717 877.931 132.102C902.606 126.2 909.036 123.245 909.036 117.802C909.036 114.966 903.692 110.004 901.575 110.874C901.265 111.001 889.779 113.88 876.05 117.268ZM647.568 115.496C636.81 117.463 635.535 126.791 640.686 165.876C642.706 181.209 644.25 187.193 646.921 190.039C650.451 193.799 650.451 193.861 646.989 200.659C642.843 208.798 644.271 212.867 652.249 215.651C658.072 217.682 658.719 219.493 655.661 225.213C650.453 234.951 645.527 252.552 647.155 255.598C649.094 259.226 654.331 259.681 659.981 256.715C668.832 252.068 710.886 217.055 711.866 213.517C712.645 210.699 711.533 208.491 707.66 205.17L702.393 200.655L727.05 206.892C747.914 212.171 752.424 212.803 756.377 211C760.558 209.093 761.048 207.881 761.043 199.461C761.039 189.141 754.323 161.902 748.362 148.038C743.577 136.902 738.461 133.717 714.612 127.014C685.121 118.726 656.658 113.835 647.568 115.496ZM141.192 133.577C127.707 173.821 127.615 225.834 140.636 444.354C144.963 516.987 152.691 595.295 158.524 625.647C167.762 673.712 185.793 704.333 216.869 724.722C241.433 740.838 266.477 747.229 311.736 748.926C327.917 749.533 342.639 750.562 344.452 751.215C347.21 752.206 345.693 754.226 335.195 763.539L322.641 774.681L312.458 774.143L302.277 773.604L307.008 767.994C309.607 764.906 311.736 761.093 311.736 759.517C311.736 752.656 303.973 757.904 284.836 777.705C271.612 791.387 258.701 802.677 247.966 809.945C232.431 820.463 208.648 833.355 200.002 835.946C193.706 837.831 196.736 831.585 205.326 824.967C218.95 814.472 231.882 801.513 231.094 799.143C229.462 794.241 224.727 796.152 212.718 806.56L200.3 817.322L199.738 808.853C199.228 801.161 199.72 799.91 205.087 795.265C229.009 774.554 235.195 768.44 234.715 765.972C233.663 760.547 230.065 762.019 216.218 773.542C208.51 779.956 201.575 785.204 200.806 785.204C200.038 785.204 199.408 782.572 199.408 779.356C199.408 776.138 198.274 771.886 196.887 769.905C194.542 766.552 195.099 765.717 204.911 757.858C210.711 753.214 215.455 748.207 215.455 746.731C215.455 741.425 209.949 741.903 202.438 747.86C198.321 751.126 192.062 756.084 188.534 758.876L182.117 763.953L171.15 760.902C165.118 759.224 160.183 757.297 160.183 756.623C160.183 755.946 164.997 751.608 170.881 746.981C181.578 738.568 183.939 734.246 178.895 732.31C177.251 731.678 171.289 735.26 163.495 741.563L150.779 751.845L144.826 748.637C131.029 741.2 131.054 741.142 155.755 721.793C170.167 710.504 177.946 703.255 177.579 701.453C176.436 695.833 169.559 699.181 149.23 715.255C137.813 724.281 128.014 731.667 127.454 731.667C126.258 731.667 117.391 718.894 117.391 717.171C117.391 716.524 124.664 710.246 133.552 703.218C144.35 694.681 149.519 689.443 149.132 687.43C148.03 681.702 143.187 683.531 128.98 695.036C121.135 701.391 114.169 706.61 113.501 706.635C112.126 706.691 107.665 687.005 104.821 668.326C102.992 656.314 103.074 655.724 107.035 652.587C120.624 641.826 129.872 632.976 129.872 630.737C129.872 625.965 123.23 628.115 112.702 636.301L102.236 644.437L100.884 636.747C100.141 632.516 99.7395 628.16 99.9927 627.064C100.246 625.968 108.321 618.466 117.937 610.393C134.376 596.591 137.986 591.31 132.284 589.41C131.159 589.035 123.136 594.44 114.454 601.422L98.6697 614.115L97.6998 607.309C97.0062 602.432 97.5108 599.857 99.4827 598.225C122.182 579.445 126.306 575.506 126.306 572.61C126.306 566.778 120.331 568.891 107.979 579.088C101.44 584.486 95.6672 588.903 95.1519 588.903C94.6348 588.903 94.2123 584.59 94.2123 579.318V569.733L116.054 552.757C141.936 532.64 145.598 528.978 142.715 526.092C139.673 523.048 135.132 525.687 113.117 543.286C91.4932 560.573 90.7194 560.605 90.6731 544.193L90.6463 534.281L103.573 524.663C110.683 519.373 119.106 513.15 122.294 510.838C128.832 506.093 129.936 499.541 125.313 492.935C120.83 486.528 112.761 487.733 99.1993 496.838L87.4761 504.708L86.2405 489.871L85.0049 475.034L92.7288 467.987C96.9777 464.111 103.462 458.329 107.139 455.138C114.046 449.146 116.04 442.57 110.947 442.57C109.364 442.57 103.546 446.447 98.0207 451.187C82.8439 464.202 83.5144 464.33 83.5144 448.407V434.402L100.007 421.041C109.077 413.692 116.5 406.497 116.5 405.049C116.5 399.066 109.022 401.696 96.1664 412.198C88.9043 418.13 82.7548 422.772 82.4998 422.515C82.2449 422.258 81.8187 413.935 81.5531 404.02L81.0717 385.992L92.5452 376.238C98.8551 370.873 104.019 365.345 104.019 363.953C104.019 358.724 97.3236 360.305 88.7207 367.566L79.9484 374.969V365.47V355.972L93.3208 345.488C101.424 339.135 106.693 333.696 106.693 331.681C106.693 326.063 100.333 327.841 89.8493 336.389C84.4308 340.805 79.5865 344.419 79.0819 344.419C78.5773 344.419 78.1707 339.401 78.1779 333.266C78.1886 322.705 78.497 321.9 83.9726 318.113C87.1534 315.914 94.1677 310.163 99.5612 305.332C107.023 298.647 108.877 296.042 107.319 294.43C104.393 291.407 100.028 293.302 88.9507 302.403C83.6053 306.795 79.1032 310.216 78.9481 310.006C78.7912 309.793 78.1868 304.268 77.6038 297.728L76.5447 285.834L86.7166 278.299C99.7431 268.649 101.89 266.029 99.3134 262.922C96.5212 259.555 95.6921 259.806 86.5526 266.791C82.0577 270.226 77.93 273.037 77.3809 273.037C76.8317 273.037 76.3824 269.213 76.3824 264.539V256.041L90.5981 245.355C104.671 234.776 107.645 231.409 105.702 228.262C103.708 225.032 99.0976 226.787 88.8633 234.669C83.1292 239.086 77.9746 242.699 77.4094 242.699C76.8442 242.699 76.3824 238.456 76.3824 233.268V223.835L93.0926 211.866C111.445 198.719 114.702 195.596 112.982 192.81C110.705 189.122 105.436 191.11 92.3579 200.593C85.0424 205.898 78.8287 210.019 78.5505 209.753C77.1919 208.448 82.5195 190.696 87.2444 180.788C93.3974 167.886 115.576 143.405 133.258 129.999C139.534 125.242 144.808 121.35 144.979 121.35C145.15 121.35 143.446 126.853 141.192 133.577ZM656.505 131.638C655.392 132.359 654.081 134.555 653.591 136.518C652.908 139.254 652.652 138.942 652.493 135.18C652.343 131.607 653.135 130.28 655.406 130.299C657.387 130.317 657.788 130.806 656.505 131.638ZM665.213 131.454C663.988 131.95 661.982 131.95 660.755 131.454C659.53 130.96 660.532 130.554 662.984 130.554C665.435 130.554 666.439 130.96 665.213 131.454ZM705.125 139.154C710.877 140.96 713.776 142.513 711.57 142.602C709.365 142.691 707.558 143.482 707.558 144.358C707.558 147.076 702.126 148.198 698.465 146.237C696.547 145.211 695.443 143.616 696.012 142.695C696.581 141.774 695.791 141.503 694.256 142.092C692.722 142.682 690.344 142.233 688.973 141.092C687.076 139.516 686.163 139.534 685.155 141.169C684.344 142.481 684.581 142.85 685.763 142.118C686.828 141.46 688.202 141.738 688.819 142.736C689.434 143.733 688.889 144.561 687.605 144.576C685.91 144.595 686.002 145.077 687.946 146.333C690.108 147.733 689.852 148.068 686.608 148.091C682.247 148.12 682.27 148.163 681.798 139.54C681.475 133.685 681.523 133.649 688.07 134.755C691.699 135.369 699.375 137.348 705.125 139.154ZM693.699 150.959C693.077 154.219 692.391 154.896 691.374 153.249C690.577 151.96 690.782 149.89 691.833 148.625C694.486 145.423 694.705 145.698 693.699 150.959ZM655.305 156.561C654.852 158.297 654.452 157.308 654.417 154.364C654.381 151.419 654.75 149.999 655.239 151.207C655.727 152.415 655.757 154.824 655.305 156.561ZM682.597 153.538C684.61 154.889 684.023 155.126 680.227 154.494C675.998 153.793 675.525 154.071 677.308 156.222C678.478 157.631 680.147 158.345 681.015 157.808C681.885 157.271 682.597 158.485 682.597 160.505C682.597 163.601 681.477 164.179 675.468 164.179C668.943 164.179 667.914 164.862 663.323 172.247C660.563 176.685 657.753 179.764 657.079 179.087C656.405 178.413 655.909 173.778 655.977 168.789C656.069 162.075 656.501 160.646 657.635 163.287C659.042 166.563 659.179 166.49 659.32 162.394C659.427 159.245 659.915 158.633 660.982 160.315C662.128 162.125 662.722 161.804 663.462 158.977C664.055 156.7 665.881 155.256 668.165 155.256C670.219 155.256 671.899 154.453 671.899 153.472C671.899 151.166 679.132 151.211 682.597 153.538ZM112.506 160.583C101.95 167.637 98.5306 171.776 100.553 175.047C102.462 178.14 106.351 176.633 117.311 168.56C124.275 163.428 128.114 159.384 127.759 157.553C126.784 152.529 123.614 153.159 112.506 160.583ZM743.453 179.979C745.408 188.179 746.599 195.296 746.101 195.794C745.604 196.292 738.433 194.814 730.165 192.511C715.159 188.328 715.136 188.312 715.971 182.942C716.939 176.723 718.256 174.606 718.256 179.269C718.256 181.905 718.723 182.075 720.931 180.24C722.402 179.018 723.605 178.786 723.605 179.724C723.605 182.788 728.808 181.518 732.54 177.544C736.184 173.659 735.792 166.617 732.058 168.926C730.957 169.608 730.716 169.226 731.477 167.994C732.187 166.845 733.513 166.367 734.426 166.933C735.339 167.496 736.138 165.301 736.198 162.054C736.309 156.3 736.359 156.263 738.106 160.61C739.092 163.064 741.499 171.779 743.453 179.979ZM688.837 164.179C689.443 165.161 688.641 165.964 687.054 165.964C685.467 165.964 684.665 165.161 685.271 164.179C685.877 163.198 686.68 162.394 687.054 162.394C687.429 162.394 688.231 163.198 688.837 164.179ZM732.52 173.889C732.52 174.322 731.718 175.172 730.737 175.779C729.757 176.385 728.954 176.03 728.954 174.992C728.954 173.953 729.757 173.102 730.737 173.102C731.718 173.102 732.52 173.455 732.52 173.889ZM693.78 180.488L700.505 182.183L693.334 190.696C686.949 198.275 683.857 206.941 687.5 207.048C688.236 207.069 690.674 208.502 692.92 210.233L697.003 213.377L679.993 227.242C670.638 234.867 662.984 240.34 662.984 239.403C662.984 238.466 664.983 233.404 667.423 228.154C673.78 214.489 673.37 211.554 664.617 208.049L657.335 205.133L661.342 198.487C663.544 194.831 667.302 188.406 669.693 184.209C674.441 175.871 675.072 175.773 693.78 180.488ZM737.869 184.596C737.869 186.125 736.867 187.43 735.64 187.491C734.416 187.553 735.334 188.374 737.682 189.314C740.032 190.255 742.371 190.605 742.883 190.093C743.395 189.582 742.901 189.163 741.788 189.163C740.676 189.163 740.194 188.04 740.722 186.666C741.248 185.294 740.822 183.64 739.773 182.992C738.727 182.344 737.869 183.067 737.869 184.596ZM717.365 185.594C717.971 186.575 718.82 187.378 719.253 187.378C719.686 187.378 720.039 186.575 720.039 185.594C720.039 184.612 719.189 183.809 718.151 183.809C717.113 183.809 716.759 184.612 717.365 185.594ZM748.626 271.142C745.786 276.454 748.694 298.051 752.579 300.498C754.857 301.934 756.541 301.922 758.819 300.455C761.355 298.82 761.893 296.058 761.695 285.72C761.558 278.605 760.479 271.825 759.247 270.339C756.168 266.625 750.824 267.03 748.626 271.142ZM621.899 323.45C618.625 325.66 613.893 331.46 611.383 336.34C607.332 344.219 606.82 347.34 606.82 364.128C606.82 381.636 607.218 383.813 612.169 393.459C624.022 416.545 645.126 415.077 655.936 390.412C659.197 382.974 660.087 377.637 660.185 364.941C660.297 350.529 659.76 347.781 654.96 338.173C649.143 326.527 640.707 319.435 632.673 319.435C630.022 319.435 625.172 321.241 621.899 323.45ZM362.031 322.512C355.286 323.768 346.019 334.593 343.011 344.73C333.809 375.745 346.592 412.232 366.663 412.232C380.128 412.232 390.612 398.859 393.532 377.958C398.058 345.561 382.768 318.648 362.031 322.512ZM464.786 410.539C442.882 413.849 426.662 426.828 421.283 445.353C413.824 471.03 427.416 496.088 455.785 508.964C503.952 530.823 567.773 515.875 587.253 478.171C591.928 469.122 592.859 449.786 589.095 439.919C585.387 430.203 573.311 419.063 563.196 416.03C547.452 411.309 483.352 407.731 464.786 410.539ZM491.427 468.997C503.995 473.813 515.975 481.701 525.494 491.427L533.32 499.42L526.386 500.887C522.574 501.692 510.628 502.299 499.841 502.234C484.04 502.138 478.285 501.351 470.234 498.187C455.723 492.483 444.975 484.755 440.521 476.824L436.62 469.877L441.486 467.612C453.683 461.934 474.505 462.512 491.427 468.997ZM199.519 504.822C197.301 508.969 200.512 548.399 203.605 554.996C206.007 560.12 211.506 560.862 214.293 556.442C216.68 552.653 212.914 507.522 209.908 503.899C207.016 500.41 201.621 500.889 199.519 504.822ZM215.478 616.535C210.028 623.109 221.783 653.049 236.052 668.933C245.853 679.846 257.541 687.43 272.008 692.268C285.059 696.633 286.815 696.753 291.153 693.578C293.535 691.834 294.117 689.916 293.275 686.565C292.33 682.796 290.253 681.409 281.923 678.986C254.72 671.069 240.766 657.309 231.331 629.093C227.232 616.833 225.919 614.702 222.184 614.242C219.786 613.947 216.769 614.979 215.478 616.535ZM124.819 661.795C117.042 668.983 115.494 673.452 120.162 675.243C123.812 676.646 140.73 660.994 139.377 657.467C137.712 653.122 132.543 654.658 124.819 661.795ZM727.389 744.161C716.643 750.089 698.722 757.524 690.62 759.415C685.499 760.609 685.683 760.24 694.935 750.71C705.278 740.057 704.802 740.214 729.846 739.168L736.978 738.87L727.389 744.161ZM689.729 742.949C689.729 743.267 684.633 748.032 678.403 753.539C667.796 762.918 666.356 763.623 655.67 764.673L644.263 765.793L656.743 754.131C669.087 742.6 669.337 742.469 679.476 742.423C685.116 742.396 689.729 742.633 689.729 742.949ZM640.661 755.748C628.72 766.868 627.847 767.339 619.105 767.348C614.093 767.353 606.069 767.867 601.275 768.486L592.556 769.616L598.351 763.495C604.263 757.249 605.973 751.297 601.856 751.297C600.597 751.297 595.207 755.714 589.882 761.112L580.196 770.928H562.711H545.225L548.215 766.359C550.929 762.215 550.947 761.532 548.417 759C545.886 756.467 544.827 756.956 536.998 764.278L528.369 772.35L504.058 772.976L479.747 773.604L484.983 767.637C490.577 761.264 490.794 757.922 485.679 756.928C483.685 756.542 479.344 759.688 473.981 765.404L465.453 774.497H453.465H441.479L447.928 767.353C451.709 763.163 454.375 758.368 454.375 755.753V751.297H487.201C520.848 751.297 647.165 746.311 648.545 744.928C648.968 744.505 650.168 744.159 651.209 744.159C652.252 744.159 647.504 749.374 640.661 755.748ZM447.487 755.238C444.902 756.915 439.576 761.86 435.654 766.229C428.841 773.815 427.963 774.224 416.041 775.378L403.56 776.585L411.137 768.781C415.304 764.489 418.715 759.603 418.715 757.922C418.715 752.099 412.099 754.867 400.424 765.574L388.749 776.281H363.616C349.792 776.281 338.481 775.701 338.481 774.991C338.481 774.281 343.496 768.6 349.625 762.367L360.768 751.033L406.479 751.612C450.34 752.167 451.998 752.313 447.487 755.238Z" fill="black"/>
</svg>
